<svg width="2798" height="1024" viewBox="0 0 2798 1024" fill="none" xmlns="http://www.w3.org/2000/svg">
<path d="M2782.28 274.717C2782.28 274.717 2718.04 368.528 2647.88 358.717V509.917H2597.48V341.917C2597.48 341.917 2553.37 298.237 2531.96 298.237C2510.56 298.237 2429.3 372.694 2395.88 388.957C2362.47 405.219 2341.57 386.487 2320.28 388.957C2299 391.426 2274.92 449.437 2274.92 449.437C2294.7 442.988 2314.91 437.936 2335.4 434.317C2345.9 434.653 2362.28 460.995 2362.28 509.917H1858.28C1853.79 504.611 1848.09 500.467 1841.65 497.835C1835.22 495.203 1828.25 494.16 1821.32 494.797C1824.04 487.962 1828.12 481.755 1833.32 476.555C1838.52 471.355 1844.73 467.272 1851.56 464.557C1851.56 464.557 1846.25 440.869 1806.2 449.437C1806.2 449.437 1812.15 407.319 1881.8 404.077C1854.34 393.748 1830.81 375.059 1814.53 350.644C1798.25 326.23 1790.05 297.321 1791.08 267.997C1791.08 267.997 1820.94 313.357 1927.16 313.357C2033.39 313.357 2017.88 222.637 2017.88 222.637C2017.88 222.637 2059.31 232.515 2063.24 267.997C2067.17 303.478 2033 373.837 2033 373.837C2033 373.837 2089.15 333.147 2093.48 298.237C2097.82 263.326 2166.45 236.698 2184.2 237.757V283.117C2184.2 293.953 2177.05 328.964 2169.08 328.477C2161.12 327.989 2120.75 338.389 2108.6 358.717C2096.46 379.045 2093.48 449.437 2093.48 449.437C2093.48 449.437 2056.98 425.917 2048.12 419.197C2039.27 412.477 2016.64 399.154 2002.76 404.077C1988.89 408.999 1981.63 451.352 1987.64 464.557C1988.52 456.839 1991.99 449.647 1997.48 444.154C2002.97 438.662 2010.17 435.194 2017.88 434.317C2044.02 433.51 2063.01 454.09 2078.36 464.557C2093.72 475.023 2111.8 494.797 2138.84 494.797C2165.89 494.797 2138.84 464.557 2138.84 464.557C2137.57 454.517 2137.57 444.356 2138.84 434.317C2152.16 412.867 2167.34 392.63 2184.2 373.837C2206.73 351.14 2213.99 345.411 2214.44 298.237C2215.03 282.221 2219.02 266.514 2226.14 252.156C2233.26 237.798 2243.35 225.116 2255.74 214.95C2268.13 204.784 2282.53 197.367 2298.01 193.189C2313.48 189.012 2329.66 188.169 2345.48 190.716C2328.24 202.687 2314.36 218.884 2305.16 237.757C2303.34 243.616 2303.45 249.91 2305.5 255.696C2307.55 261.482 2311.42 266.45 2316.52 269.854C2321.63 273.259 2327.7 274.918 2333.83 274.583C2339.96 274.248 2345.82 271.937 2350.52 267.997C2370.78 249.029 2466.12 190.716 2530.28 190.716C2594.44 190.716 2628.51 291.029 2664.68 291.517C2700.85 292.004 2750.97 289.685 2782.28 274.717ZM2379.08 509.917C2379.08 509.917 2385.08 437.677 2411 419.197C2438.9 399.782 2469.45 384.504 2501.72 373.837C2507.76 373.525 2513.8 374.485 2519.44 376.655C2525.09 378.824 2530.21 382.154 2534.49 386.43C2538.77 390.706 2542.1 395.832 2544.27 401.476C2546.43 407.121 2547.39 413.158 2547.08 419.197V509.917H2379.08ZM1707.08 207.516C1707.08 207.516 1808.45 209.835 1851.56 252.876C1894.67 295.918 1900.28 299.648 1927.16 298.237C1954.04 296.825 1998.33 260.05 1987.64 237.757C1976.96 215.463 1894.86 157.117 1824.68 157.117C1754.51 157.117 1726.29 185.576 1707.08 207.516ZM1791.08 425.917V509.917H1656.58V459.517H1686.47C1702.53 459.517 1726.22 425.917 1746.24 425.917H1791.08ZM1623.18 509.917V459.281H1358.52C1328.56 461.475 1298.95 467.112 1270.28 476.081V509.917H1623.18ZM1236.68 509.917V476.317H329.483C422.519 432.055 517.855 392.799 615.083 358.717C746.661 315.037 963.179 255.833 1001.48 257.916C1024.74 259.244 1047.54 264.943 1068.68 274.717C1068.68 274.717 1248.88 153.555 1287.08 140.316C1070.82 182.231 857.561 238.352 648.683 308.317C317.337 420.793 228.683 459.517 228.683 459.517L195.083 476.317V509.917H1236.68ZM178.384 509.917V459.281H163.264C163.264 459.281 30.5438 508.69 27.083 509.917H178.384ZM161.483 325.117C179.357 334.615 196.241 345.87 211.883 358.717C235.868 385.411 258.305 413.457 279.083 442.717L329.483 425.917C329.483 425.917 502.741 287.787 631.883 224.316C761.025 160.846 813.323 156.461 833.483 157.117C833.483 157.117 936.601 31.7213 967.883 5.9165C851.097 51.7846 738.649 108.009 631.883 173.917C432.484 293.314 346.955 375.332 329.483 375.517C314.262 375.685 211.883 325.117 211.883 325.117H161.483ZM2782.28 745.116C2782.28 745.116 2718.04 651.305 2647.88 661.116V509.917H2597.48V677.917C2597.48 677.917 2553.37 721.596 2531.96 721.596C2510.56 721.596 2429.3 647.139 2395.88 630.876C2362.47 614.614 2341.57 633.346 2320.28 630.876C2299 628.407 2274.92 570.396 2274.92 570.396C2294.7 576.845 2314.91 581.897 2335.4 585.516C2345.9 585.18 2362.28 558.838 2362.28 509.917H1858.28C1853.79 515.222 1848.09 519.366 1841.65 521.998C1835.22 524.63 1828.25 525.673 1821.32 525.036C1824.04 531.871 1828.12 538.078 1833.32 543.278C1838.52 548.478 1844.73 552.561 1851.56 555.276C1851.56 555.276 1846.25 578.964 1806.2 570.396C1806.2 570.396 1812.15 612.514 1881.8 615.756C1854.34 626.085 1830.81 644.774 1814.53 669.189C1798.25 693.603 1790.05 722.512 1791.08 751.836C1791.08 751.836 1820.94 706.477 1927.16 706.477C2033.39 706.477 2017.88 797.196 2017.88 797.196C2017.88 797.196 2059.31 787.318 2063.24 751.836C2067.17 716.355 2033 645.996 2033 645.996C2033 645.996 2089.15 686.686 2093.48 721.596C2097.82 756.507 2166.45 783.135 2184.2 782.076V736.716C2184.2 725.88 2177.05 690.869 2169.08 691.357C2161.12 691.844 2120.75 681.444 2108.6 661.116C2096.46 640.788 2093.48 570.396 2093.48 570.396C2093.48 570.396 2056.98 593.916 2048.12 600.636C2039.27 607.356 2016.64 620.679 2002.76 615.756C1988.89 610.834 1981.63 568.481 1987.64 555.276C1988.52 562.994 1991.99 570.186 1997.48 575.679C2002.97 581.171 2010.17 584.639 2017.88 585.516C2044.02 586.323 2063.01 565.743 2078.36 555.276C2093.72 544.81 2111.8 525.036 2138.84 525.036C2165.89 525.036 2138.84 555.276 2138.84 555.276C2137.57 565.316 2137.57 575.477 2138.84 585.516C2152.16 606.966 2167.34 627.203 2184.2 645.996C2206.73 668.693 2213.99 674.422 2214.44 721.596C2215.03 737.612 2219.02 753.319 2226.14 767.677C2233.26 782.035 2243.35 794.717 2255.74 804.883C2268.13 815.049 2282.53 822.466 2298.01 826.644C2313.48 830.821 2329.66 831.664 2345.48 829.116C2328.24 817.146 2314.36 800.949 2305.16 782.076C2303.34 776.217 2303.45 769.923 2305.5 764.137C2307.55 758.351 2311.42 753.383 2316.52 749.979C2321.63 746.574 2327.7 744.915 2333.83 745.25C2339.96 745.585 2345.82 747.896 2350.52 751.836C2370.78 770.804 2466.12 829.116 2530.28 829.116C2594.44 829.116 2628.51 728.804 2664.68 728.316C2700.85 727.829 2750.97 730.148 2782.28 745.116ZM2379.08 509.917C2379.08 509.917 2385.08 582.156 2411 600.636C2438.9 620.051 2469.45 635.329 2501.72 645.996C2507.76 646.308 2513.8 645.348 2519.44 643.178C2525.09 641.009 2530.21 637.679 2534.49 633.403C2538.77 629.127 2542.1 624.001 2544.27 618.357C2546.43 612.712 2547.39 606.675 2547.08 600.636V509.917H2379.08ZM1707.08 812.316C1707.08 812.316 1808.45 809.981 1851.56 766.956C1894.67 723.932 1900.28 720.185 1927.16 721.596C1954.04 723.008 1998.33 759.783 1987.64 782.076C1976.96 804.37 1894.86 862.716 1824.68 862.716C1754.51 862.716 1726.29 834.257 1707.08 812.316ZM1791.08 593.917V509.917H1656.58V560.316H1686.47C1702.53 560.316 1726.22 593.917 1746.24 593.917H1791.08ZM1623.18 509.917V560.552H1358.52C1328.55 558.331 1298.95 552.665 1270.28 543.668V509.917H1623.18ZM1236.68 509.917V543.516H329.483C422.519 587.778 517.855 627.034 615.083 661.116C746.661 704.796 963.179 764 1001.48 761.917C1024.74 760.589 1047.54 754.89 1068.68 745.116C1068.68 745.116 1248.88 866.278 1287.08 879.516C1070.82 837.602 857.561 781.481 648.683 711.516C317.337 599.04 228.683 560.316 228.683 560.316L195.083 543.516V509.917H1236.68ZM178.384 509.917V560.552H163.264C163.264 560.552 30.5438 511.143 27.083 509.917H178.384ZM161.483 694.716C179.357 685.218 196.241 673.963 211.883 661.116C235.864 634.419 258.301 606.373 279.083 577.116L329.483 593.917C329.483 593.917 502.741 732.046 631.883 795.516C761.025 858.987 813.323 863.372 833.483 862.716C833.483 862.716 936.601 988.112 967.883 1013.92C851.097 968.048 738.649 911.824 631.883 845.917C432.484 726.519 346.955 644.501 329.483 644.316C314.262 644.148 211.883 694.716 211.883 694.716H161.483Z" fill="#4CA30D"/>
</svg>
