<svg width="7434" height="1024" viewBox="0 0 7434 1024" fill="none" xmlns="http://www.w3.org/2000/svg">
<g clip-path="url(#clip0_125_137)">
<path d="M2633.58 456.981C2844.35 476.703 3032.69 392.616 3230.92 384.32C3197.74 367.712 3160.43 268.221 3150.19 173.586C2398.95 173.586 2558.24 0.231445 1894.54 0.231445C1320.51 0.231445 983.289 517.197 488.297 824.662C866.68 701.978 1241.61 235.699 1920.1 235.699C2267.64 235.699 2633.58 456.981 2633.58 456.981ZM3353.79 379.401H4080.58C4157.68 384.32 4197.28 225.63 4204.13 162.7L4161.07 131.551C4153.23 145.811 4141.71 157.712 4127.71 166.018C4113.71 174.324 4097.75 178.731 4081.47 178.783H3352.89C3336.62 178.731 3320.65 174.324 3306.66 166.018C3292.66 157.712 3281.14 145.811 3273.29 131.551L3230.24 162.7C3237.09 225.63 3276.66 384.32 3353.79 379.401ZM4800.78 456.981C4800.78 456.981 5166.72 235.699 5514.26 235.699C6192.76 235.699 6567.67 701.963 6946.07 824.662C6451.08 517.181 6113.85 0.231445 5539.83 0.231445C4876.11 0.231445 5035.4 173.586 4284.17 173.586C4273.93 268.221 4236.63 367.712 4203.45 384.32C4401.66 392.632 4590.02 476.703 4800.78 456.981ZM7371.35 661.484C7371.35 661.484 7485.29 962.519 6958.73 911.663C6667.29 883.506 6181.92 465.863 5969.89 404.043C6185.15 536.395 6543.91 918.294 6725.98 980.561H708.376C890.458 918.294 1249.21 536.457 1464.46 404.043C1252.4 465.863 767.096 883.506 475.637 911.663C-50.8425 962.519 63.0672 661.484 63.0672 661.484C63.0672 661.484 -4.68956 706.388 0.275779 815.117C3.05143 875.919 54.987 1023.77 306.122 1023.77H7128.24C7379.36 1023.77 7431.3 875.919 7434.08 815.117C7439.03 706.388 7371.3 661.484 7371.3 661.484H7371.35Z" fill="#4CA30D"/>
</g>
<defs>
<clipPath id="clip0_125_137">
<rect width="7434" height="1024" fill="white"/>
</clipPath>
</defs>
</svg>
