<svg width="5427" height="1024" viewBox="0 0 5427 1024" fill="none" xmlns="http://www.w3.org/2000/svg">
<g clip-path="url(#clip0_125_135)">
<path d="M1279.8 392.427V373.5C1279.76 367.267 1277.26 361.3 1272.85 356.902C1268.43 352.505 1262.45 350.033 1256.21 350.027H1239.59L1239.46 347.284C1216.96 321.006 1223.9 222.38 1223.9 200.081C1224.6 191.134 1227.15 182.431 1231.39 174.521C1235.63 166.611 1241.46 159.665 1248.52 154.122C1248.52 154.122 1228.69 123.965 1197.64 123.965C1166.6 123.965 1146.8 154.122 1146.8 154.122C1153.86 159.666 1159.69 166.612 1163.92 174.523C1168.16 182.433 1170.71 191.135 1171.41 200.081C1171.41 222.38 1178.36 321.006 1155.82 347.259L1155.72 350.002H1139.07C1132.84 350.008 1126.86 352.48 1122.44 356.878C1118.02 361.275 1115.52 367.242 1115.48 373.476V961.832C1115.52 968.066 1118.02 974.033 1122.44 978.43C1126.86 982.828 1132.84 985.299 1139.07 985.306H1256.21C1262.45 985.299 1268.43 982.828 1272.85 978.43C1277.26 974.033 1279.76 968.066 1279.8 961.832V392.427ZM2935.46 299.324C2971.08 338.858 3037.47 293.913 3059.65 276.925C3057.42 266.393 3057.73 255.485 3060.53 245.093C3063.34 234.702 3068.57 225.123 3075.79 217.142C3095.76 197.746 3117.38 206.245 3131.68 211.854C3137.37 214.609 3143.51 216.285 3149.81 216.796C3186.03 199.71 3226.25 101.9 3226.25 101.9L3173.55 107.607C3173.55 107.607 3170.77 140.964 3075.77 162.634C3058.67 166.304 3041.39 169.018 3023.99 170.763C3014.11 171.863 3003.53 172.814 2992.24 173.605C2980.7 174.408 2969.64 175.223 2958.99 175.989L2940.55 177.311C2871.46 182.13 2823.6 183.39 2799.14 162.375L2797.79 162.585C2789.03 163.931 2774 166.439 2766.91 167.527L2831.04 242.629C2849.56 243.84 2892.92 252.056 2935.46 299.312V299.324ZM5426.39 576.707C5426.36 562.626 5420.74 549.133 5410.77 539.192C5400.8 529.252 5387.29 523.677 5373.2 523.693C5365.22 523.469 5357.33 525.493 5350.44 529.537C5337.4 536.95 5340.02 549.181 5321.66 549.181V467.641C5321.66 467.641 5273.83 453.582 5273.83 421.25V361.282C5272.85 333.719 5261.78 322.859 5244.71 321.896C5244.71 321.896 5214.26 354.474 5150.37 351.2C5105.36 347.494 5063.03 328.28 5030.62 296.841V865.183C5063.03 833.744 5105.36 814.53 5150.37 810.824C5214.26 807.537 5244.71 840.128 5244.71 840.128C5261.78 839.165 5272.85 828.293 5273.83 800.742V740.774C5273.83 708.442 5321.66 694.383 5321.66 694.383V612.843C5340.02 612.843 5337.4 625.074 5350.44 632.487C5357.33 636.531 5365.22 638.556 5373.2 638.331C5387.29 638.347 5400.8 632.772 5410.77 622.832C5420.74 612.892 5426.36 599.398 5426.39 585.318C5426.38 583.886 5426.31 582.456 5426.18 581.031C5426.27 579.548 5426.39 578.152 5426.39 576.707ZM4867.31 309.455H4640.65C4446.1 309.455 4448.52 199.636 4448.52 199.636H4287.91C4280.97 236.254 4233.88 273.231 4211.7 279.458C4188.23 362.455 4105.04 415.357 4105.04 415.357V985.331H4448.5C4448.5 985.331 4468.67 843.934 4640.65 843.934H4867.36C4914.06 843.934 4929.77 906.126 4929.77 906.126H4980.39V247.213H4929.74C4929.74 247.213 4921.18 309.455 4867.31 309.455ZM4257.66 14.1829L4233.93 0C4233.93 0 4166.37 85.8883 3892.62 90.0764H3862.97L3721.61 89.9035C3705.05 88.7764 3688.93 84.0591 3674.37 76.0788C3621.45 76.7147 3568.91 85.2084 3518.49 101.282C3449.01 126.473 3396.18 152.479 3313.97 155.32C3278.75 156.556 3254.04 156.432 3237.01 155.876C3212.16 200.748 3179.74 249.548 3155.01 252.241C3142.89 252.851 3130.8 250.44 3119.84 245.224C3105.12 239.442 3102.91 239.677 3099.11 243.383C3086.55 255.564 3093.89 281.249 3093.94 281.422L3097.23 291.874L3088.93 299.102C3085.55 302.042 3026.91 352.461 2969.87 352.461C2958.24 352.65 2946.71 350.286 2936.09 345.537C2925.47 340.787 2916.03 333.768 2908.41 324.972C2864.63 276.345 2823 278.433 2821.32 278.544L2812.67 279.285L2743.66 198.388C2727.54 200.392 2711.34 201.596 2695.1 201.996C2612.97 204.096 2585.6 180.993 2585.6 180.993C2582.26 178.657 2578.23 177.492 2574.16 177.678C2570.08 177.864 2566.18 179.39 2563.06 182.021C2559.93 184.652 2557.77 188.239 2556.9 192.226C2556.02 196.213 2556.49 200.377 2558.23 204.071C2558.23 204.071 2565.38 249.783 2624.21 288.724C2683.87 328.258 2693.4 310.418 2711.6 332.446C2729.79 354.474 2738.97 390.871 2766.34 407.66C2793.7 424.45 2809.8 421.473 2857.98 415.011C2895.05 410.069 2906.17 416.321 2906.17 416.321C2926.56 398.483 2952.49 388.228 2979.56 387.288C3022.55 388.751 3064.52 400.794 3101.74 422.35C3138.06 441.771 3215.4 453.829 3251.23 430.738C3268.07 292.22 3532.24 206.913 3695.89 324.342C3730.09 348.878 3746.07 395.541 3739.92 416C3767.28 449.048 4110.75 438.435 4154.07 243.605C4240.79 224.061 4262.35 108.62 4257.66 14.1829ZM2803.38 466.134L2802.77 949.391C2805.55 993.62 2885.98 993.62 2887.36 949.391L2887.62 461.464C2850.95 455.25 2841.08 466.653 2803.38 466.134ZM3684.95 448.838C3684.95 448.838 3704.44 320.067 3514.46 320.067C3342.38 320.067 3321.2 426.909 3318.73 459.413C3290.32 481.725 3264.37 511.302 3135.64 491.139C3096.94 485.061 3045.88 451.358 3005.29 441.03C2964.69 430.701 2946.49 437.323 2938.73 459.561V924.522H3437.45C3561.48 924.522 3569.01 985.331 3569.01 985.331H3908.93V474.263C3792.65 493.203 3714.68 475.771 3684.95 448.875V448.838ZM2685.14 405.375C2685.14 405.375 2055.71 415.987 1481.21 425.846V411.021C1481.18 404.787 1478.68 398.82 1474.26 394.423C1469.84 390.025 1463.86 387.554 1457.63 387.547H1368.94C1362.7 387.554 1356.72 390.025 1352.31 394.423C1347.89 398.82 1345.39 404.787 1345.35 411.021V920.531C1345.39 926.765 1347.89 932.732 1352.31 937.129C1356.72 941.527 1362.7 943.998 1368.94 944.005H1457.63C1463.86 943.998 1469.84 941.527 1474.26 937.129C1478.68 932.732 1481.18 926.765 1481.21 920.531V905.706C2057.91 915.59 2753.14 926.177 2753.14 926.177V463.206C2735.13 463.206 2688.34 440.029 2685.14 405.412V405.375ZM3966.19 990.606C3966.19 991.298 3966.35 991.953 3966.44 992.632C3971.53 1034.8 4049.41 1034.14 4050.78 990.606L4051.04 435.186C4024.32 449.013 3996.03 459.578 3966.78 466.653L3966.19 990.606ZM1028.83 387.498H972C965.767 387.508 959.791 389.98 955.373 394.377C950.955 398.774 948.455 404.739 948.415 410.971V436.483C948.415 436.483 187.553 465.726 158.903 461.402C135.43 457.857 130.006 380.913 130.006 380.913H52.3459V407.228C52.3459 450.073 0.0371104 461.402 0.0371094 461.402V880.293C0.0371094 880.293 52.3459 891.61 52.3459 934.455V960.782H130.031C130.031 960.782 135.43 883.826 158.928 880.293C187.578 875.969 948.453 905.212 948.453 905.212V930.699C948.492 936.932 950.993 942.896 955.41 947.293C959.828 951.69 965.804 954.163 972.037 954.173H1028.87C1035.1 954.163 1041.08 951.69 1045.49 947.293C1049.91 942.896 1052.41 936.932 1052.45 930.699V410.996C1052.42 404.753 1049.92 398.776 1045.49 394.373C1041.06 389.97 1035.07 387.498 1028.83 387.498Z" fill="#4CA30D"/>
</g>
<defs>
<clipPath id="clip0_125_135">
<rect width="5427" height="1024" fill="white"/>
</clipPath>
</defs>
</svg>
