<svg width="6758" height="1024" viewBox="0 0 6758 1024" fill="none" xmlns="http://www.w3.org/2000/svg">
<g clip-path="url(#clip0_124_87)">
<path d="M6336.74 709.449C6285.17 709.067 6235.86 688.216 6199.66 651.483C6163.46 614.749 6143.33 565.141 6143.71 513.57V512.01V510.451C6142.93 463.664 6159.2 418.193 6189.49 382.523C6219.78 346.853 6262.01 323.422 6308.3 316.603C6354.6 309.783 6401.79 320.042 6441.08 345.463C6480.36 370.884 6509.06 409.731 6521.8 454.755H6757.23C6700.29 425.553 6682.1 390.128 6660.77 350.733C6634.23 294.141 6593.33 245.492 6542.13 209.635C6490.94 173.778 6431.24 151.966 6368.98 146.372C6306.73 140.779 6244.1 151.6 6187.33 177.757C6130.56 203.913 6081.64 244.492 6045.44 295.448C5956.62 294.555 5393.63 292.84 5342.94 295.873C5286.89 299.233 5249.55 343.121 5180.92 346.75C5112.3 343.121 5074.96 299.233 5018.89 295.873C4966.59 292.74 4304.95 295.873 4304.95 295.873C4304.95 295.873 4235.28 358.105 4131.15 302.479C4153.58 350.039 4151.98 439.53 4276.12 510.465C4275.04 510.961 4274 511.486 4272.97 512.01C4274 512.535 4275.04 513.059 4276.12 513.555C4151.98 584.434 4153.58 673.982 4131.15 721.541C4235.28 665.916 4304.95 728.147 4304.95 728.147C4304.95 728.147 4966.59 731.28 5018.89 728.147C5074.96 724.788 5112.3 680.9 5180.92 677.271C5249.55 680.885 5286.89 724.788 5342.94 728.147C5393.63 731.181 5956.62 729.466 6045.44 728.572C6081.64 779.528 6130.56 820.107 6187.33 846.264C6244.1 872.42 6306.73 883.241 6368.98 877.648C6431.24 872.055 6490.94 850.243 6542.13 814.386C6593.33 778.529 6634.23 729.879 6660.77 673.287C6682.16 633.893 6700.29 598.468 6757.23 569.266H6521.8C6510.27 609.506 6486 644.92 6452.63 670.196C6419.26 695.472 6378.6 709.245 6336.74 709.449ZM4208.44 764.267C4129.34 759.149 4078.29 825.137 4007.02 809.417C4038.17 774.261 4063.33 734.224 4081.5 690.908C4107.16 621.9 4098.89 566.899 4172.99 514.378H4174.4L4173.7 513.839L4174.4 513.3H4172.99L4171.2 511.996L4172.99 510.692H4174.4L4173.7 510.153L4174.4 509.615H4172.99C4098.89 457.079 4107.16 402.092 4081.5 333.085C4063.33 289.768 4038.17 249.731 4007.02 214.576C4078.29 198.855 4129.34 264.843 4208.44 259.725C4232.52 257.974 4255.88 250.744 4276.74 238.588C4297.6 226.432 4315.41 209.671 4328.81 189.584C4228.47 255.288 4178.3 138.353 4029.7 114.708C4013.85 107.62 4008.27 99.3697 4008.27 91.2328C4008.27 72.0247 4039.45 53.6105 4039.45 53.6105C4039.45 53.6105 3961.78 -5.51638 3866.62 0.409069C3771.46 6.33451 3750.14 102.885 3750.14 102.885C3750.14 102.885 3723.93 92.0408 3679.26 125.566C3634.59 159.092 3664.69 199.464 3596.73 234.932C3585.11 241.294 3572.44 245.538 3559.33 247.463C3558.71 273.849 3551.32 299.633 3537.89 322.351C3524.46 345.069 3505.42 363.963 3482.6 377.228C3460.81 390.211 3435.87 396.954 3410.5 396.719C3391.7 396.533 3373.05 393.395 3355.22 387.42C3340.87 407.262 3322.07 423.465 3300.33 434.733C3278.58 446 3254.51 452.017 3230.02 452.302H3229.89L1307.37 457.59H1306.86C1280.41 457.808 1254.87 447.909 1235.48 429.919C1147.1 446.377 1014.12 468.902 950.807 512.01C1014.13 555.119 1147.1 577.644 1235.48 594.102C1254.87 576.105 1280.41 566.2 1306.86 566.417H1307.34L3229.89 571.718H3230.02C3254.51 572.003 3278.58 578.021 3300.33 589.288C3322.07 600.555 3340.87 616.759 3355.22 636.601C3373.05 630.624 3391.7 627.486 3410.5 627.301C3435.87 627.067 3460.81 633.81 3482.6 646.793C3505.42 660.057 3524.46 678.951 3537.89 701.669C3551.32 724.388 3558.71 750.172 3559.33 776.557C3572.45 778.482 3585.11 782.725 3596.73 789.089C3664.69 824.528 3634.59 864.957 3679.26 898.454C3723.93 931.951 3750.14 921.135 3750.14 921.135C3750.14 921.135 3771.5 1017.7 3866.65 1023.61C3961.8 1029.52 4039.49 970.396 4039.49 970.396C4039.49 970.396 4008.31 951.967 4008.31 932.773C4008.31 924.651 4013.89 916.386 4029.74 909.299C4178.29 885.653 4228.46 768.704 4328.85 834.422C4315.45 814.328 4297.64 797.561 4276.77 785.402C4255.9 773.243 4232.53 766.014 4208.44 764.267ZM3436.86 725.496C3428.87 720.854 3419.76 718.495 3410.52 718.678C3367.33 718.678 3317.1 761.63 3317.1 761.63C3317.1 761.63 3293.2 663.095 3230.03 663.095H3229.81L1307.17 657.751H1306.86C1048.25 657.751 772.675 530.396 734.16 511.939C772.732 493.511 1048.32 366.128 1306.86 366.128H1307.17L3229.78 360.841H3230.01C3293.17 360.841 3317.07 262.305 3317.07 262.305C3317.07 262.305 3367.3 305.258 3410.49 305.258C3419.73 305.441 3428.84 303.082 3436.83 298.439C3487.12 268.33 3466.92 213.045 3455.92 192.022C3445.52 172.176 3396.64 90.6658 3155.23 90.6658C3141.21 90.6658 3126.58 90.9493 3111.28 91.5163C3111.28 91.5163 3246.34 279.628 3041.37 283.328C3038.62 283.328 3035.9 283.399 3033.23 283.399C2841.29 283.399 2839.41 157.235 2839.41 157.235C2839.41 157.235 2772.02 209.798 2593.4 212.449C2414.79 215.1 1420.48 225.59 1003.6 280.776C615.764 332.106 73.742 490.194 0.0141602 511.996C73.7278 533.798 615.764 691.9 1003.57 743.23C1420.45 798.416 2414.79 808.935 2593.4 811.557C2772.02 814.18 2839.38 866.743 2839.38 866.743C2839.38 866.743 2841.26 740.579 3033.2 740.579C3035.87 740.579 3038.59 740.579 3041.34 740.65C3246.31 744.35 3111.26 932.462 3111.26 932.462C3126.59 933.043 3141.22 933.312 3155.2 933.312C3396.61 933.312 3445.49 851.83 3455.9 831.956C3466.91 810.848 3487.11 755.563 3436.86 725.496Z" fill="#4CA30D"/>
</g>
<defs>
<clipPath id="clip0_124_87">
<rect width="6758" height="1024" fill="white"/>
</clipPath>
</defs>
</svg>
