<svg width="2740" height="1024" viewBox="0 0 2740 1024" fill="none" xmlns="http://www.w3.org/2000/svg">
<path d="M2537.52 21.5285C2534.36 21.8785 2532.35 23.51 2531.48 26.4232L2452.15 67.0984C2451.19 71.7758 2448.15 74.031 2443.04 73.864V73.8659L2379.12 106.501C2378.41 106.86 2377.82 107.414 2377.43 108.1C2376.39 109.847 2374.95 111.196 2373.1 112.144C2352.25 122.915 2331.32 133.493 2310.29 143.878L2310.56 145.501C2310.61 145.85 2310.54 146.208 2310.36 146.513C2310.19 146.818 2309.91 147.051 2309.57 147.173L2305.38 148.676C2281.88 161.01 2256.81 172.122 2234.79 186.954L2234.53 187.13C2229.17 190.739 2213.25 201.465 2211.39 192.647C2211.22 191.928 2210.63 191.395 2209.93 191.324C2205.15 190.775 2200.86 189.068 2197.06 186.206L2197.05 186.203C2194.04 188.679 2191.68 188.986 2189.96 187.123C2189.72 186.859 2189.41 186.666 2189.07 186.564C2188.73 186.463 2188.37 186.457 2188.02 186.548L2171.15 191.214L2171.14 191.224C2167.68 192.023 2165.98 193.463 2166.03 195.544C2165.77 201.421 2163.12 205.807 2158.07 208.704L2157.26 220.564C2158.75 225.242 2157.81 228.38 2154.44 229.978C2154.29 230.046 2154.13 230.082 2153.97 230.084C2153.81 230.087 2153.65 230.055 2153.51 229.991C2153.36 229.927 2153.23 229.833 2153.12 229.714C2153.01 229.596 2152.93 229.456 2152.88 229.303C2129.89 162.9 2114.99 119.22 2108.17 98.2618C2107.72 96.8468 2108.14 95.8894 2109.43 95.3896C2110.17 95.0964 2111.02 95.2292 2111.64 95.7392L2117.43 100.608H2117.44C2119.62 104.171 2122.4 107.093 2125.77 109.373C2126.2 109.663 2126.77 109.611 2127.14 109.248L2127.62 108.773C2127.74 108.656 2127.9 108.581 2128.07 108.559C2128.24 108.537 2128.41 108.568 2128.57 108.649L2138.89 113.918C2139.62 114.29 2140.46 114.404 2141.27 114.242C2148.4 112.91 2155.19 110.655 2161.66 107.476C2162.07 107.451 2162.46 107.397 2162.82 107.316C2162.46 107.395 2162.07 107.448 2161.67 107.473C2161.92 106.095 2162.46 105.104 2163.28 104.497C2164.21 103.807 2165.52 103.616 2167.19 103.926L2169.12 101.957C2166.89 96.7613 2169.34 94.2942 2171.91 91.7171C2173.72 89.8997 2175.58 88.0279 2175.89 85.1051V85.1022C2175.76 83.2765 2176.12 81.9946 2176.96 81.2564C2177.82 80.4931 2179.2 80.3102 2181.09 80.7077C2185.66 82.672 2190.22 82.8384 2194.78 81.2069C2198.74 79.7754 2201.82 78.9098 2204.04 78.61C2207.79 78.0983 2211.47 77.197 2215.09 75.9062C2211.47 77.1937 2207.79 78.0937 2204.04 78.6061C2201.82 78.9058 2198.74 79.7714 2194.78 81.2029C2190.22 82.8338 2185.66 82.6674 2181.09 80.7038C2187.1 77.0577 2193.34 76.1168 2199.79 77.8811C2200.55 78.093 2201.36 78.0306 2202.09 77.7068C2206.81 75.6441 2211.75 74.8131 2216.92 75.2139H2216.93L2221.23 73.7659C2230.27 69.2457 2238.21 70.6936 2247.05 67.0479C2248.46 66.4656 2250.31 66.7069 2252.61 67.7719C2253.03 67.9601 2253.52 67.7194 2253.62 67.2728C2253.67 66.9968 2253.78 66.7944 2253.94 66.6656C2254.17 66.492 2254.5 66.453 2254.93 66.5488C2260.45 64.0688 2266.01 63.6277 2271.59 65.2256C2272.37 65.4365 2273.2 65.4019 2273.95 65.1265C2279.37 63.1952 2284.92 61.8466 2290.59 61.0807C2292.5 60.8252 2294.46 60.2725 2296.48 59.704C2300.59 58.5482 2304.95 57.3211 2309.67 58.359L2310.29 58.16C2316.8 59.5082 2322.74 58.1184 2328.1 53.9903L2340.31 51.0429C2341.05 50.8695 2341.84 51.0627 2342.45 51.5678C2344.65 53.3987 2347.24 53.7232 2350.21 52.5413C2353.68 49.6956 2357.6 48.8966 2361.97 50.1446L2366.79 48.7996V48.7966C2371.85 46.2189 2377.17 45.038 2382.75 45.2539L2382.76 45.2499C2386.68 44.068 2390.61 42.9026 2394.54 41.7538C2400.59 39.9572 2407.76 40.6554 2414.57 37.6842C2414.92 37.531 2415.31 37.4896 2415.68 37.5657C2416.05 37.6417 2416.4 37.8315 2416.66 38.109L2417.86 39.3322C2418.49 39.9869 2419.4 40.2691 2420.29 40.082C2441.63 35.8034 2462.93 31.4086 2484.18 26.8976C2486.37 26.4271 2488.14 26.6945 2489.89 26.9619C2491.57 27.2195 2493.26 27.477 2495.32 27.0719C2511.27 23.9422 2527.16 20.555 2542.98 16.9102C2543.38 16.8112 2543.62 16.8138 2543.69 16.9182C2543.75 17.0258 2543.63 17.2394 2543.32 17.559C2541.68 19.273 2539.75 20.5962 2537.52 21.5285ZM2537.53 21.5285C2536.7 24.6081 2534.68 26.2393 2531.49 26.4222C2532.35 23.509 2534.37 21.8778 2537.53 21.5285ZM2328.1 53.9854C2322.74 58.1141 2316.8 59.504 2310.28 58.155C2315.85 55.1758 2321.79 53.786 2328.1 53.9854ZM2154.34 218.891C2154.61 219.701 2155.27 220.312 2156.08 220.514C2155.68 220.413 2155.31 220.211 2155 219.927C2154.7 219.643 2154.47 219.287 2154.34 218.891L2114.88 103.155C2114.74 102.775 2114.74 102.36 2114.86 101.976C2114.99 101.593 2115.24 101.261 2115.57 101.033C2114.9 101.498 2114.61 102.371 2114.89 103.155L2154.34 218.891ZM2132.51 238.676C2132.59 238.906 2132.57 239.16 2132.47 239.38C2132.36 239.6 2132.17 239.77 2131.94 239.851L2054.83 266.995C2054.36 267.161 2053.84 266.905 2053.67 266.423L2006.9 129.146C2006.83 128.915 2006.84 128.663 2006.95 128.443C2007.05 128.224 2007.24 128.054 2007.47 127.971L2084.58 100.828C2085.06 100.661 2085.57 100.917 2085.74 101.398L2132.51 238.676ZM1042.27 502.879L1068.03 578.506C1068.08 578.636 1068.15 578.752 1068.24 578.854C1068.33 578.956 1068.43 579.037 1068.56 579.097C1068.68 579.156 1068.8 579.19 1068.94 579.198C1069.08 579.205 1069.21 579.186 1069.34 579.14L2016.84 245.647C2016.87 245.636 2016.9 245.623 2016.93 245.61C2016.96 245.595 2016.99 245.579 2017.02 245.562C2017.05 245.545 2017.08 245.526 2017.11 245.506C2017.13 245.486 2017.16 245.465 2017.18 245.442C2017.21 245.419 2017.23 245.395 2017.25 245.37C2017.28 245.345 2017.3 245.32 2017.32 245.293L2017.38 245.208L2017.42 245.118C2017.44 245.088 2017.46 245.057 2017.46 245.025L2017.5 244.928L2017.52 244.828C2017.53 244.794 2017.53 244.761 2017.53 244.727V244.625C2017.53 244.591 2017.53 244.558 2017.52 244.524L2017.5 244.424C2017.5 244.392 2017.49 244.359 2017.47 244.327L1991.71 168.701C1991.67 168.571 1991.6 168.455 1991.51 168.352C1991.42 168.25 1991.32 168.169 1991.2 168.11C1991.07 168.05 1990.94 168.017 1990.8 168.01C1990.67 168.002 1990.54 168.021 1990.4 168.066L1042.92 501.559C1042.88 501.57 1042.85 501.583 1042.82 501.598C1042.78 501.612 1042.75 501.627 1042.73 501.645L1042.64 501.701C1042.61 501.72 1042.59 501.742 1042.56 501.765C1042.54 501.788 1042.52 501.811 1042.49 501.836L1042.43 501.915C1042.4 501.942 1042.38 501.97 1042.37 501.999C1042.35 502.028 1042.33 502.058 1042.32 502.088L1042.28 502.182C1042.27 502.214 1042.26 502.246 1042.25 502.279C1042.24 502.311 1042.23 502.344 1042.23 502.378L1042.21 502.479V502.581C1042.21 502.615 1042.22 502.649 1042.22 502.682L1042.24 502.782C1042.25 502.815 1042.26 502.848 1042.27 502.879ZM2078.73 190.628C2080.03 187.024 2080.19 183.789 2079.21 180.924C2078.4 178.531 2076.78 176.395 2074.37 174.517C2073.73 173.991 2073.28 173.276 2073.07 172.474C2073.03 172.329 2072.99 172.19 2072.95 172.057C2070.99 166.308 2059.9 172.979 2057.77 175.616V175.621C2057.87 177.868 2057.12 179.739 2055.51 181.238V181.234C2054.91 183.7 2054.98 186.044 2055.73 188.265L2055.79 188.415C2056.14 189.411 2056.63 190.381 2057.26 191.327C2057.14 192.461 2057.35 193.333 2057.86 193.942C2058.36 194.531 2059.15 194.874 2060.23 194.973C2066.32 196.738 2071.96 195.955 2077.15 192.625C2077.89 192.155 2078.44 191.451 2078.73 190.628ZM2060.23 194.97C2060.18 192.839 2059.19 191.624 2057.26 191.324C2057.15 192.458 2057.36 193.33 2057.87 193.939C2058.37 194.528 2059.15 194.871 2060.23 194.97ZM569.257 400.394C569.036 397.498 544.495 392.305 540.907 391.505L541.128 390.381C541.158 390.244 541.157 390.101 541.128 389.964C541.098 389.826 541.039 389.696 540.956 389.583C540.872 389.47 540.765 389.376 540.643 389.307C540.52 389.238 540.384 389.195 540.244 389.183L532.927 388.584H532.924C518.561 386.52 504.231 386.728 489.933 389.208L485.61 389.608C485.35 389.632 485.215 389.677 485.205 389.742C485.202 389.76 485.208 389.778 485.222 389.798C485.21 389.78 485.206 389.764 485.208 389.748C485.219 389.683 485.354 389.638 485.613 389.613L489.937 389.214L491.337 390.587C491.644 390.882 491.768 391.114 491.71 391.285C491.653 391.453 491.422 391.561 491.017 391.61L486.866 392.135C486.875 391.573 486.755 391.11 486.505 390.744C486.752 391.109 486.871 391.571 486.863 392.129L462.247 398.298C461.607 398.458 461.306 399.198 461.658 399.746L462.076 400.42C462.429 400.98 462.528 401.401 462.374 401.684C462.221 401.964 461.819 402.109 461.166 402.118C457.645 402.151 454.419 403.191 451.487 405.238C450.787 405.726 449.957 405.996 449.104 406.013C444.911 406.063 442.692 407.944 442.447 411.656C442.43 411.967 442.292 412.259 442.063 412.47C441.833 412.68 441.53 412.791 441.218 412.779C438.041 412.613 435.323 413.729 433.062 416.126C432.535 416.693 431.818 417.048 431.048 417.124L427.216 417.474C426.196 417.56 425.582 418.664 426.036 419.596L426.405 420.396C426.509 420.609 426.57 420.842 426.585 421.079C426.6 421.317 426.567 421.555 426.49 421.78C426.412 422.005 426.291 422.212 426.133 422.39C425.975 422.568 425.784 422.713 425.57 422.817L417.168 426.888C416.437 427.245 415.616 427.375 414.81 427.262L375.775 421.894C375.072 421.802 374.705 421.659 374.676 421.464C374.645 421.268 374.954 421.02 375.603 420.721L376.61 420.246C377.437 419.863 377.832 419.542 377.795 419.284C377.758 419.026 377.289 418.831 376.389 418.697L330.475 411.881L330.477 411.886C326.007 412.918 322.862 411.744 321.044 408.365C324.935 407.201 327.78 407.851 329.579 410.314C327.781 407.847 324.935 407.195 321.042 408.36L281.738 402.743V402.746L274.515 401.622C274.352 401.599 274.195 401.544 274.053 401.46C273.911 401.375 273.788 401.264 273.69 401.131C273.591 400.999 273.521 400.848 273.481 400.688C273.441 400.528 273.434 400.362 273.459 400.199L273.753 397.952L280.977 399.075C281.405 399.133 281.753 399.408 281.926 399.776C281.84 399.588 281.707 399.425 281.541 399.302C281.375 399.178 281.18 399.099 280.975 399.071L273.751 397.948L234.446 392.129L233.611 390.381C233.446 390.038 233.198 389.742 232.889 389.519C232.58 389.297 232.22 389.156 231.842 389.109L222.163 387.96L186.567 382.067C182.98 378.421 178.501 377.023 173.129 377.871L135.764 371.954C132.702 367.925 128.542 366.602 123.285 367.984L87.0496 362.165C85.4121 358.254 82.2676 357.114 77.6159 358.744L36.8862 352.128C36.9192 350.441 36.528 349.246 35.7125 348.541C34.5075 347.5 32.3765 347.53 29.3194 348.632L18.8547 347.159C18.7634 347.142 18.677 347.105 18.6017 347.051C18.5264 346.997 18.4641 346.927 18.4193 346.845C18.3746 346.764 18.3485 346.674 18.3429 346.581C18.3374 346.489 18.3525 346.396 18.3872 346.31C18.7071 345.486 44.1578 342.265 46.8844 341.891C47.6292 341.782 48.0323 341.595 48.0937 341.328C48.1558 341.062 47.8751 340.717 47.2518 340.292L46.4664 339.768C46.0617 339.491 45.8801 339.269 45.9217 339.102C45.9613 338.937 46.2165 338.826 46.6873 338.769L77.8378 334.699L77.5436 332.482C77.4555 331.78 77.9457 331.146 78.6242 331.083L83.9764 330.534L83.9793 330.529L126.962 324.712L126.056 322.495C125.742 321.764 126.255 320.943 127.039 320.922L133.057 320.647C133.051 322.014 132.772 323.062 132.219 323.79C132.775 323.062 133.056 322.012 133.062 320.64L169.346 315.348L180.253 314.174C180.918 314.11 181.397 313.488 181.309 312.8L181.015 310.553L222.774 304.735C222.218 304.07 221.875 303.346 221.744 302.565C221.675 302.211 221.743 301.843 221.935 301.537C222.126 301.231 222.427 301.01 222.776 300.917C224.806 300.401 226.829 300.376 228.843 300.842C229.863 302.754 230.096 304.091 229.541 304.854C230.098 304.091 229.866 302.753 228.845 300.84L271.295 294.747L271.298 294.748L270.979 292.405C270.893 291.663 271.449 291.005 272.184 290.981L279.427 290.857V290.852L321.037 284.76L319.297 282.842C318.831 282.343 319.027 281.522 319.665 281.294C322.089 280.412 324.57 280.229 327.109 280.744C327.516 281.912 327.697 282.872 327.652 283.624C327.698 282.87 327.517 281.909 327.109 280.738L368.945 274.771L368.949 274.772L368.212 272.399C368.027 271.759 368.514 271.124 369.17 271.151L373.908 271.35L414.761 265.308C415.508 265.179 416.288 265.398 416.898 265.907C420.633 269.003 425.767 267.729 427.02 273.897C427.089 274.24 427.259 274.554 427.508 274.799C427.758 275.044 428.075 275.208 428.419 275.27C431.58 275.886 434.324 277.418 436.65 279.865C436.926 280.154 437.274 280.364 437.658 280.474C438.042 280.583 438.449 280.589 438.836 280.489C440.234 280.127 441.251 280.216 441.886 280.754C442.478 281.256 442.739 282.15 442.668 283.435C442.64 283.88 442.75 284.323 442.983 284.703C443.216 285.083 443.561 285.381 443.97 285.558L457.383 291.201L457.285 293.149C457.269 293.479 457.379 293.802 457.594 294.053C457.809 294.304 458.111 294.463 458.44 294.497L461.068 294.747L483.275 301.014C483.969 301.207 484.26 302.044 483.841 302.638L483.448 303.187C483.369 303.292 483.318 303.416 483.302 303.546C483.285 303.676 483.303 303.809 483.353 303.93C483.454 304.178 483.677 304.351 483.939 304.386C503.117 307.415 522.311 307.531 541.522 304.735L541.524 304.734L541.23 302.492C541.208 302.336 541.219 302.177 541.263 302.025C541.307 301.873 541.382 301.733 541.485 301.612C541.587 301.492 541.713 301.395 541.855 301.327C541.998 301.259 542.153 301.222 542.311 301.218L543.979 301.194V301.19C551.971 299.907 559.758 297.826 567.341 294.947C568.121 294.655 568.773 294.098 569.183 293.373L570.19 291.626C570.381 291.288 570.639 290.993 570.947 290.757C571.255 290.521 571.608 290.349 571.984 290.252C575.554 289.304 578.788 287.639 581.688 285.259C582.428 284.639 583.352 284.279 584.316 284.235C584.832 284.212 585.234 284.066 585.524 283.798C586.06 283.3 586.206 282.38 585.961 281.039C585.838 280.297 586.451 279.648 587.166 279.765L588.271 279.94C588.936 280.05 589.424 280.641 589.426 281.338V411.955C589.426 412.892 589.248 413.443 588.892 413.606C588.54 413.768 588.014 413.551 587.313 412.955C586.56 412.322 586.224 411.564 586.306 410.682C586.343 410.296 586.258 409.909 586.064 409.573C585.87 409.238 585.577 408.971 585.224 408.81L570.412 402.068C570.087 401.918 569.809 401.684 569.606 401.389C569.402 401.095 569.282 400.751 569.257 400.394ZM713.575 424.85C713.575 424.934 713.559 425.018 713.527 425.096C713.495 425.174 713.448 425.245 713.388 425.305C713.328 425.365 713.258 425.413 713.18 425.446C713.102 425.478 713.018 425.495 712.933 425.495L626.511 425.036C626.426 425.035 626.343 425.017 626.265 424.983C626.188 424.95 626.117 424.902 626.058 424.841C625.999 424.78 625.953 424.709 625.922 424.63C625.89 424.552 625.875 424.468 625.876 424.383L626.68 268.173C626.68 268.089 626.696 268.005 626.728 267.927C626.761 267.848 626.808 267.777 626.867 267.717C626.927 267.657 626.998 267.61 627.076 267.577C627.154 267.545 627.237 267.528 627.322 267.527L713.745 267.988C713.829 267.989 713.913 268.007 713.99 268.04C714.068 268.074 714.138 268.122 714.197 268.183C714.256 268.243 714.302 268.315 714.334 268.394C714.365 268.472 714.381 268.556 714.379 268.641L713.575 424.85ZM2239.64 424.64C2239.64 424.998 2239.35 425.289 2239 425.289H2152.48C2152.31 425.287 2152.14 425.217 2152.02 425.095C2151.91 424.973 2151.84 424.81 2151.84 424.64V268.628C2151.84 268.458 2151.91 268.294 2152.02 268.173C2152.14 268.051 2152.31 267.982 2152.48 267.979H2239C2239.35 267.979 2239.64 268.269 2239.64 268.628V424.64ZM2299 301.868C2300.13 302.96 2301.24 303.786 2302.32 304.347C2301.25 303.784 2300.14 302.958 2299.01 301.868C2303.13 300.703 2307.42 300.628 2311.85 301.643C2317.48 300.511 2322.98 298.43 2328.33 295.401C2328.98 295.037 2329.43 294.41 2329.59 293.677L2330.03 291.63C2330.24 290.695 2330.96 289.961 2331.87 289.732C2336 288.75 2338.19 286.053 2338.46 281.642C2338.5 280.781 2339.26 280.141 2340.1 280.243L2347.75 281.218C2349.06 282.35 2350.46 283.223 2351.94 283.837C2350.47 283.221 2349.07 282.347 2347.75 281.217C2351.55 280.767 2355.28 281.1 2358.93 282.215C2359.6 282.423 2360.06 283.051 2360.06 283.763L2360.04 284.763L2360.03 284.764L2406.7 290.581C2407.35 291.191 2408.02 291.738 2408.71 292.223C2408.02 291.737 2407.35 291.191 2406.7 290.584L2420.12 292.207C2420.79 292.278 2421.32 292.834 2421.37 293.531L2421.45 294.754L2470.99 301.093C2472.58 303.949 2475.01 305.403 2478.27 305.456C2475.01 305.399 2472.58 303.944 2470.99 301.091C2476.86 299.709 2480.67 300.974 2482.44 304.886V304.889L2530.75 310.557L2530.61 312.454C2530.56 313.21 2530.99 313.912 2531.69 314.178C2535.1 315.426 2538.75 315.701 2542.65 315.002L2590.72 321.044C2591.5 323.638 2593.23 325.146 2595.89 325.568C2593.23 325.14 2591.51 323.632 2590.73 321.043C2596.91 319.096 2600.75 320.427 2602.23 325.039L2602.22 325.041L2648.95 331.082C2649.95 332.109 2651.03 332.971 2652.17 333.669C2651.03 332.97 2649.96 332.109 2648.96 331.085C2654.05 330.353 2658.87 330.461 2663.43 331.41C2664.16 331.557 2664.74 332.155 2664.86 332.908L2665.27 335.329L2690.44 338.024L2690.14 340.271C2690.05 340.954 2690.54 341.57 2691.2 341.619C2690.55 341.561 2690.07 340.949 2690.16 340.272L2690.46 338.024L2703.2 339.223C2703.87 339.272 2704.34 339.889 2704.26 340.571L2703.97 342.821L2735.29 346.464C2735.77 346.522 2736.02 346.61 2736.04 346.727C2736.05 346.844 2735.84 346.989 2735.39 347.163C2733.25 348.043 2730.97 348.327 2728.53 348.013L2728.83 350.258C2728.91 350.935 2728.42 351.545 2727.77 351.581L2719.93 352.18C2719.5 350.865 2718.65 349.966 2717.38 349.483C2717.05 349.35 2716.89 349.241 2716.9 349.158C2716.91 349.096 2717.01 349.047 2717.22 349.013C2717.01 349.047 2716.9 349.096 2716.89 349.16C2716.88 349.243 2717.03 349.352 2717.36 349.485C2718.64 349.968 2719.49 350.867 2719.91 352.182L2667.1 358L2655.94 359.149C2655.56 359.189 2655.35 359.272 2655.32 359.395C2655.29 359.52 2655.45 359.687 2655.8 359.897L2656.73 360.447C2657.26 360.752 2657.44 361.44 2657.13 361.97L2656.66 362.794L2606.92 367.988L2592.76 369.461C2592.4 369.502 2592.18 369.605 2592.11 369.769C2592.04 369.936 2592.13 370.166 2592.37 370.46C2592.88 371.093 2593.01 371.867 2592.78 372.783L2541.32 378.375L2531.47 379.224C2531.02 379.264 2530.79 379.333 2530.77 379.431C2530.76 379.537 2531 379.676 2531.5 379.848C2532.77 380.298 2533.34 381.272 2533.21 382.77L2480.41 388.584C2480.54 389.299 2480.94 389.782 2481.61 390.032C2482.11 390.23 2482.37 390.789 2482.2 391.305C2481.74 392.704 2469.84 392.804 2466.9 392.753C2467.13 391.888 2467.03 391.164 2466.6 390.581C2466.39 390.285 2466.32 390.058 2466.4 389.9C2466.44 389.815 2466.52 389.749 2466.64 389.704C2466.51 389.749 2466.42 389.816 2466.38 389.905C2466.3 390.063 2466.38 390.29 2466.59 390.585C2467.02 391.168 2467.11 391.893 2466.88 392.758L2417.06 398.251C2416.39 398.314 2415.95 398.996 2416.15 399.65L2416.53 400.923C2416.57 401.046 2416.58 401.176 2416.56 401.304C2416.54 401.431 2416.49 401.553 2416.42 401.66C2416.35 401.768 2416.26 401.858 2416.15 401.925C2416.04 401.992 2415.91 402.034 2415.79 402.047L2356.97 407.937C2357.2 408.953 2357.16 409.893 2356.87 410.759C2356.62 411.502 2355.96 412.022 2355.19 412.082L2346.53 412.731C2346.25 410.767 2345.02 409.743 2342.84 409.66C2342.39 409.643 2342.17 409.62 2342.16 409.59L2342.24 409.559C2342.19 409.57 2342.16 409.58 2342.16 409.59L2342.15 409.592C2342.15 409.622 2342.38 409.645 2342.83 409.663C2345 409.746 2346.23 410.77 2346.52 412.734L2339.88 412.634C2339.17 412.62 2338.59 412.025 2338.57 411.286C2338.49 406.558 2336.32 404.111 2332.05 403.945C2331.73 403.93 2331.43 403.791 2331.21 403.557C2331 403.324 2330.88 403.014 2330.89 402.696C2330.96 395.707 2320.33 393.683 2315.2 392.76H2315.19L2298 392.136L2297.43 389.789C2297.23 389.011 2297.74 388.253 2298.48 388.093C2298.3 388.132 2298.13 388.206 2297.97 388.313C2297.82 388.42 2297.69 388.557 2297.59 388.715C2297.5 388.874 2297.43 389.05 2297.4 389.235C2297.38 389.419 2297.39 389.607 2297.43 389.787L2298 392.134C2293.98 392.25 2290.55 393.549 2287.71 396.03C2287.09 396.552 2286.36 396.905 2285.59 397.053L2283.23 397.453C2282.54 397.584 2282.03 398.203 2282.03 398.926L2282.05 401.173C2282.05 401.691 2281.81 402.179 2281.42 402.496C2278.56 404.76 2276.77 407.682 2276.03 411.261C2275.88 412.046 2275.13 412.553 2274.37 412.384L2273.55 412.21C2273.38 412.176 2273.21 412.202 2273.05 412.284C2272.9 412.366 2272.78 412.498 2272.71 412.659L2269.59 420.4C2269.24 421.282 2268.98 421.707 2268.8 421.673C2268.63 421.64 2268.54 421.148 2268.54 420.2L2268.44 271.18C2268.44 270.863 2268.48 270.696 2268.54 270.68C2268.61 270.664 2268.72 270.797 2268.86 271.08C2276.28 286.511 2283.26 297.173 2299 301.868ZM953.057 292.805C953.082 289.41 954.948 288.161 957.919 289.957V289.953H1016.9C1017.22 289.958 1017.53 290.09 1017.75 290.319C1017.98 290.547 1018.1 290.856 1018.11 291.177L1018.14 493.408C1018.14 493.828 1018.05 494.085 1017.87 494.178C1017.7 494.271 1017.44 494.206 1017.1 493.982C1008.83 488.656 999.976 484.711 990.542 482.147C990.158 482.048 989.81 481.844 989.536 481.557C989.263 481.27 989.075 480.912 988.995 480.524C988.34 477.611 986.104 476.312 982.288 476.628C981.546 476.694 980.805 476.49 980.2 476.054C977.121 473.807 973.69 472.667 969.907 472.633C968.977 472.639 968.325 471.696 968.629 470.786L968.924 469.987C969.045 469.644 969.028 469.267 968.877 468.937C968.725 468.606 968.452 468.347 968.113 468.214L956.694 463.92L956.693 463.923C955.738 464.043 954.983 463.895 954.429 463.481C953.671 462.913 953.287 461.845 953.278 460.278C952.95 404.462 952.877 348.638 953.057 292.805ZM736.406 289.662L796.217 290.66V290.656C797.315 289.974 798.379 289.766 799.41 290.033C800.133 290.234 800.635 290.908 800.639 291.681C800.705 337.143 800.721 382.596 800.688 428.041C800.663 437.898 800.05 449.85 797.524 459.634L797.526 459.657C797.952 460.672 798.059 461.721 797.846 462.803C797.765 463.203 797.591 463.577 797.339 463.898C797.088 464.219 796.765 464.477 796.396 464.651L736.431 493.217C735.76 493.55 734.979 493.051 734.982 492.293V291.085C734.982 290.289 735.624 289.648 736.406 289.662ZM2122.5 305.259C2122.3 334.075 2122.27 362.957 2122.41 391.905C2122.41 392.429 2121.98 392.854 2121.47 392.854H1782.16C1779.99 392.854 1778.87 392.661 1778.8 392.275C1778.73 391.887 1779.71 391.306 1781.74 390.532C1857.21 361.916 1933.79 332.818 2011.46 303.237C2015.92 301.539 2020.53 300.674 2025.3 300.64C2057.41 300.39 2089.54 300.357 2121.69 300.54C2122.41 300.539 2123 301.109 2123.04 301.838C2123.1 302.599 2122.92 303.221 2122.76 303.817C2122.62 304.296 2122.5 304.758 2122.5 305.259ZM820.374 301.567V391.749C820.374 391.785 820.376 391.821 820.379 391.857C820.383 391.893 820.389 391.929 820.395 391.965C820.402 392 820.411 392.035 820.422 392.07C820.432 392.104 820.445 392.138 820.459 392.171C820.472 392.205 820.488 392.237 820.504 392.269C820.521 392.301 820.54 392.332 820.561 392.362C820.58 392.392 820.602 392.421 820.625 392.449C820.647 392.477 820.672 392.504 820.697 392.529C820.723 392.555 820.75 392.579 820.777 392.602C820.805 392.625 820.834 392.646 820.865 392.666C820.894 392.687 820.925 392.705 820.958 392.722C820.989 392.739 821.022 392.754 821.055 392.768C821.088 392.782 821.122 392.794 821.157 392.805C821.192 392.815 821.227 392.824 821.262 392.832C821.297 392.838 821.333 392.843 821.37 392.847C821.405 392.851 821.441 392.852 821.478 392.852H931.636C931.673 392.852 931.709 392.851 931.744 392.847C931.781 392.843 931.816 392.838 931.851 392.832C931.887 392.824 931.922 392.815 931.956 392.805C931.991 392.794 932.025 392.782 932.058 392.768C932.092 392.754 932.125 392.739 932.156 392.722C932.188 392.705 932.219 392.687 932.249 392.666C932.279 392.646 932.308 392.625 932.336 392.602C932.364 392.579 932.391 392.555 932.416 392.529C932.442 392.504 932.466 392.477 932.489 392.449C932.512 392.421 932.534 392.392 932.554 392.362C932.573 392.332 932.592 392.301 932.609 392.269C932.626 392.237 932.642 392.205 932.656 392.171C932.669 392.138 932.682 392.104 932.692 392.07C932.703 392.035 932.711 392 932.718 391.965C932.725 391.929 932.73 391.893 932.734 391.857C932.738 391.821 932.74 391.785 932.74 391.749V301.567C932.74 301.531 932.738 301.495 932.734 301.459C932.73 301.423 932.725 301.387 932.718 301.352C932.711 301.316 932.703 301.281 932.692 301.247C932.682 301.212 932.669 301.178 932.656 301.145C932.642 301.111 932.626 301.079 932.609 301.047C932.592 301.015 932.573 300.984 932.554 300.954C932.534 300.924 932.512 300.895 932.489 300.867C932.466 300.839 932.442 300.812 932.417 300.786C932.391 300.761 932.364 300.737 932.337 300.714C932.308 300.691 932.279 300.67 932.249 300.65C932.219 300.629 932.188 300.611 932.156 300.594C932.125 300.577 932.092 300.562 932.058 300.548C932.025 300.534 931.991 300.522 931.956 300.511C931.922 300.501 931.887 300.492 931.851 300.485C931.816 300.478 931.781 300.473 931.744 300.47C931.709 300.466 931.673 300.464 931.636 300.464H821.478C821.441 300.464 821.405 300.466 821.37 300.47C821.333 300.473 821.297 300.478 821.262 300.485C821.227 300.492 821.192 300.501 821.157 300.511C821.122 300.522 821.088 300.534 821.055 300.548C821.022 300.562 820.989 300.577 820.958 300.594C820.925 300.611 820.894 300.629 820.865 300.65C820.834 300.67 820.805 300.691 820.777 300.714C820.75 300.737 820.723 300.761 820.697 300.786C820.672 300.812 820.647 300.839 820.625 300.867C820.602 300.895 820.58 300.924 820.561 300.954C820.54 300.984 820.521 301.015 820.504 301.047C820.488 301.079 820.472 301.111 820.459 301.145C820.445 301.178 820.432 301.212 820.422 301.247C820.411 301.281 820.402 301.316 820.395 301.352C820.389 301.387 820.383 301.423 820.379 301.459C820.376 301.495 820.374 301.531 820.374 301.567ZM1039.99 392.703C1093.5 393.086 1147.06 393.011 1200.66 392.478C1205.98 392.411 1211.17 391.521 1216.24 389.806C1300.52 361.19 1384.53 331.626 1468.28 301.113C1468.87 300.895 1469.16 300.732 1469.14 300.624C1469.12 300.517 1468.8 300.464 1468.19 300.464H1040.22C1039.54 300.464 1038.99 301.023 1038.99 301.712V391.679C1038.99 392.244 1039.44 392.703 1039.99 392.703ZM2542.65 314.997C2540.28 310.786 2536.32 309.304 2530.76 310.552L2530.61 312.451C2530.56 313.205 2531 313.908 2531.69 314.173C2535.1 315.421 2538.75 315.696 2542.65 314.997ZM181.305 312.799L181.011 310.552C176.065 310.053 172.175 311.651 169.342 315.347L180.249 314.173C180.914 314.109 181.393 313.487 181.305 312.799ZM2187.92 335.148C2187.03 335.131 2186.24 335.291 2185.56 335.596C2180.22 337.981 2181.27 349.251 2182.81 353.328C2183.12 354.137 2183.67 354.814 2184.39 355.25C2190.28 358.884 2195.95 359.505 2201.4 357.111C2201.52 357.059 2201.64 357.006 2201.76 356.952C2203.73 356.038 2205.67 354.73 2207.58 353.027C2207.93 352.716 2208.2 352.334 2208.38 351.907C2208.56 351.48 2208.65 351.018 2208.63 350.555L2208.2 339.418C2208.18 338.975 2208.04 338.547 2207.79 338.183C2207.53 337.82 2207.18 337.538 2206.77 337.37L2203.8 336.221C2202.98 335.897 2202.32 335.284 2201.93 334.499C2200.37 331.378 2194.38 329.143 2191.14 330.591C2189.89 331.147 2189.05 332.247 2189.03 334.05C2189.03 334.501 2188.76 334.886 2188.39 335.057C2188.24 335.119 2188.09 335.152 2187.92 335.148ZM655.888 343.789L655.886 343.812C655.854 344.186 655.835 344.56 655.83 344.935C655.827 345.17 655.829 345.405 655.836 345.64C655.843 345.875 655.856 346.11 655.873 346.343C655.89 346.578 655.912 346.811 655.939 347.044C655.966 347.277 655.998 347.509 656.036 347.74C656.074 347.971 656.116 348.201 656.164 348.429C656.211 348.658 656.263 348.885 656.32 349.111C656.378 349.337 656.44 349.56 656.508 349.782C656.574 350.005 656.646 350.225 656.723 350.443C656.8 350.661 656.881 350.877 656.967 351.091C657.054 351.304 657.144 351.516 657.239 351.724C657.335 351.933 657.434 352.139 657.539 352.341C657.643 352.545 657.751 352.745 657.864 352.942C657.977 353.138 658.095 353.332 658.216 353.523C658.337 353.713 658.463 353.9 658.592 354.084C658.722 354.267 658.856 354.447 658.993 354.623C659.131 354.799 659.272 354.971 659.417 355.139C659.562 355.308 659.71 355.472 659.862 355.632C660.015 355.791 660.17 355.947 660.33 356.099C660.488 356.25 660.65 356.397 660.816 356.539C660.981 356.681 661.149 356.819 661.32 356.952C661.492 357.085 661.666 357.213 661.843 357.336C662.02 357.46 662.199 357.578 662.382 357.692C662.564 357.805 662.748 357.913 662.935 358.016C663.122 358.119 663.311 358.217 663.502 358.31C663.693 358.402 663.886 358.489 664.081 358.571C664.276 358.654 664.473 358.73 664.672 358.801C664.87 358.872 665.069 358.938 665.271 358.997C665.471 359.057 665.674 359.112 665.878 359.16C666.081 359.209 666.286 359.252 666.491 359.289C666.697 359.327 666.903 359.358 667.11 359.384C667.317 359.411 667.524 359.431 667.732 359.445C667.94 359.459 668.148 359.468 668.356 359.471C668.845 359.478 669.333 359.453 669.821 359.397L669.839 359.394C676.181 358.657 681.179 352.658 681.28 345.294C681.389 337.365 675.78 330.857 668.753 330.757C662.067 330.662 656.506 336.403 655.888 343.789ZM30.497 351.606L36.8852 352.13C36.9182 350.443 36.5267 349.248 35.7106 348.543C34.5056 347.502 32.3745 347.532 29.3174 348.634L29.2194 350.108C29.1768 350.886 29.7463 351.553 30.497 351.606ZM2667.11 358.002C2666.64 359.017 2666.61 360.041 2667.01 361.073C2667.22 361.597 2666.86 362.167 2666.31 362.197L2656.67 362.796L2657.14 361.972C2657.46 361.442 2657.28 360.754 2656.75 360.449L2655.81 359.899C2655.47 359.689 2655.31 359.522 2655.34 359.397C2655.36 359.274 2655.57 359.192 2655.96 359.151L2667.11 358.002ZM77.613 358.749C79.5456 362.345 82.6901 363.486 87.0466 362.17C85.4092 358.258 82.2646 357.118 77.613 358.749ZM135.761 371.957C132.699 367.928 128.539 366.605 123.282 367.987C126.541 371.649 130.701 372.972 135.761 371.957ZM2592.77 369.462C2592.41 369.503 2592.2 369.605 2592.13 369.77C2592.06 369.936 2592.14 370.166 2592.39 370.46C2592.89 371.093 2593.03 371.867 2592.8 372.783C2593.17 372.776 2593.75 372.796 2594.49 372.823C2599.17 372.991 2609.73 373.368 2606.93 367.988L2592.77 369.462ZM186.568 382.071C182.982 378.425 178.502 377.027 173.13 377.875C176.717 381.538 181.196 382.936 186.568 382.071ZM2540.61 382.301C2541.37 381.464 2541.61 380.157 2541.33 378.378L2531.49 379.227C2531.04 379.267 2530.81 379.336 2530.79 379.434C2530.78 379.54 2531.02 379.679 2531.51 379.852C2532.79 380.301 2533.36 381.275 2533.23 382.773C2536.95 383.769 2539.41 383.611 2540.61 382.301ZM231.842 389.114L222.163 387.967C225.291 391.795 229.386 393.185 234.446 392.136L233.611 390.388C233.446 390.045 233.198 389.749 232.889 389.526C232.58 389.303 232.22 389.162 231.842 389.114ZM994.673 605.099L994.667 605.08C983.829 576.488 973.801 547.605 964.583 518.431C964.377 517.742 964.69 517.01 965.319 516.708C979.039 510.068 993.357 505.233 1008.27 502.203L1008.28 502.198L1020.41 499.351C1021.18 499.181 1021.93 499.61 1022.19 500.351L1080.9 673.592C1081.44 675.171 1081.44 676.249 1080.9 676.829C1080.37 677.397 1079.32 677.483 1077.76 677.087C1068.03 674.624 1058.32 673.641 1048.64 674.141C1046.55 674.241 1045.09 673.642 1044.27 672.343C1044.09 672.053 1043.83 671.813 1043.53 671.643C1043.23 671.474 1042.89 671.38 1042.55 671.369L1018.62 670.745C1018.24 670.735 1017.88 670.61 1017.58 670.387C1017.27 670.164 1017.05 669.853 1016.93 669.497L994.673 605.099ZM849.58 570.521L875.64 647.016C875.675 647.116 875.727 647.205 875.796 647.284C875.866 647.364 875.948 647.426 876.043 647.473C876.138 647.518 876.238 647.544 876.343 647.55C876.448 647.556 876.551 647.541 876.651 647.506L977.146 612.135C977.195 612.117 977.243 612.095 977.288 612.068C977.333 612.041 977.375 612.01 977.414 611.975C977.453 611.94 977.489 611.902 977.52 611.86C977.552 611.818 977.579 611.773 977.602 611.726C977.626 611.678 977.644 611.629 977.657 611.578C977.671 611.527 977.679 611.476 977.683 611.424C977.686 611.371 977.684 611.318 977.677 611.266C977.67 611.215 977.658 611.164 977.641 611.115L951.58 534.619C951.547 534.519 951.495 534.429 951.425 534.35C951.356 534.271 951.273 534.209 951.178 534.162C951.084 534.116 950.984 534.09 950.878 534.084C950.773 534.078 950.671 534.093 950.571 534.129L850.076 569.5C850.026 569.518 849.979 569.54 849.933 569.567C849.888 569.593 849.846 569.624 849.806 569.659C849.768 569.694 849.732 569.733 849.701 569.775C849.669 569.817 849.641 569.862 849.618 569.908C849.595 569.956 849.577 570.005 849.564 570.056C849.551 570.107 849.542 570.159 849.539 570.212C849.536 570.264 849.537 570.316 849.544 570.368C849.551 570.42 849.563 570.471 849.58 570.521ZM967.469 521.978C967.416 521.95 967.363 521.925 967.309 521.901C967.19 521.847 967.082 521.787 966.984 521.72C967.081 521.786 967.189 521.846 967.306 521.899C967.362 521.924 967.416 521.95 967.469 521.978ZM824.891 567.993C824.699 567.884 824.486 567.816 824.266 567.795C824.045 567.774 823.823 567.799 823.614 567.87L787.183 580.031L773.179 584.924C772.575 585.151 772.258 585.818 772.467 586.423L832.826 763.659C832.998 764.158 833.211 764.431 833.465 764.477C833.719 764.523 834.014 764.341 834.349 763.933C841.473 755.078 849.523 747.179 858.497 740.238C859.162 739.724 859.679 739.043 859.996 738.265C863.436 729.575 871.714 729.7 876.333 721.21C880.065 722.007 881.906 719.884 880.653 716.165C863.931 666.308 846.956 616.46 829.728 566.619C829.481 565.915 828.802 565.472 828.082 565.546C816.929 566.695 808.6 571.688 798.111 574.91C794.246 576.075 790.602 577.781 787.179 580.029L823.61 567.868C824.053 567.72 824.513 567.778 824.891 567.993ZM792.57 710.465C792.627 710.633 792.617 710.817 792.54 710.978C792.464 711.138 792.327 711.262 792.159 711.323L717.412 737.632C717.329 737.661 717.242 737.673 717.154 737.668C717.067 737.662 716.981 737.64 716.903 737.601C716.824 737.562 716.754 737.508 716.697 737.442C716.639 737.376 716.596 737.299 716.568 737.216L669.591 599.325C669.533 599.157 669.543 598.972 669.62 598.812C669.697 598.651 669.833 598.527 670.001 598.467L744.748 572.158C744.831 572.129 744.919 572.117 745.006 572.122C745.093 572.128 745.179 572.151 745.257 572.189C745.336 572.228 745.406 572.282 745.463 572.348C745.521 572.414 745.565 572.491 745.592 572.574L792.57 710.465ZM671.626 735.569L672.019 734.545C672.123 734.274 672.128 733.976 672.033 733.702C671.939 733.428 671.751 733.196 671.503 733.046C670.291 732.381 669.137 732.772 668.04 734.22L649.615 732.972C646.012 730.525 642.327 730.176 638.56 731.923C625.122 733.422 582.82 743.609 576.383 756.593C576.007 757.359 575.483 758 574.811 758.516L557.099 772.375C556.432 772.898 555.992 773.658 555.871 774.497C555.158 779.79 545.406 787.506 541.843 792.15C537.643 797.594 539.387 804.186 530.028 805.759C520.758 807.307 511.489 808.847 502.219 810.379C499.254 808.248 496.183 808.04 493.006 809.754L436.554 819.742C435.58 818.244 434.464 817.344 433.204 817.043C431.497 816.635 429.526 817.326 427.292 819.118L378.774 827.433C376.841 825.685 374.54 825.119 371.871 825.735L319.202 834.924C318.514 834.578 317.829 834.305 317.148 834.104C317.828 834.305 318.511 834.578 319.197 834.923C315.971 836.987 312.901 836.92 309.986 834.724C295.131 837.205 280.287 839.785 265.451 842.465C256.878 844.013 248.599 842.764 240.246 844.337C220.954 847.933 201.621 851.246 182.246 854.276C177.824 852.961 173.525 853.102 169.349 854.7L161.389 855.499C160.867 855.557 160.588 855.535 160.554 855.432C160.52 855.327 160.733 855.142 161.193 854.875L194.007 836.075L194.004 836.076C194.145 834.581 194.626 833.463 195.446 832.725C196.445 831.827 197.946 831.487 199.95 831.706C199.286 833.659 198.12 834.958 196.45 835.605C198.124 834.96 199.293 833.659 199.958 831.702C215.606 821.914 233.269 814.099 248.058 803.262C268.791 788.03 292.916 779.566 305.813 768.079C307.828 766.281 309.998 764.791 312.323 763.61C336.176 751.449 358.875 735.968 381.304 723.184C392.359 716.875 403.209 710.233 413.854 703.258C426.506 694.942 439.6 688.425 452.595 680.984C461.513 675.866 472.985 665.978 485.514 660.833C487.36 660.083 489.475 660.674 490.698 662.282C493.301 665.794 496.765 667.101 501.089 666.202C501.881 666.024 502.71 666.112 503.447 666.452C512.782 670.813 522.584 672.861 532.852 672.595C534.443 672.555 535.705 673.177 536.923 673.776C538.037 674.324 539.114 674.854 540.37 674.842C565.509 674.625 588.601 668.008 609.646 654.991C615.468 651.37 639.592 630.495 638.167 623.204C638.139 623.053 638.148 622.897 638.191 622.75C638.234 622.603 638.312 622.468 638.417 622.356C638.522 622.245 638.652 622.159 638.796 622.107C638.941 622.055 639.095 622.037 639.248 622.056C642.171 622.48 675.876 724.806 679.856 736.543C680.203 737.567 680.216 738.226 679.896 738.517C679.582 738.803 678.946 738.736 677.989 738.315L671.626 735.569ZM719.875 661.464L718.02 656.604C717.963 656.454 717.909 656.302 717.859 656.149C717.809 655.995 717.763 655.84 717.72 655.684C717.678 655.528 717.639 655.372 717.604 655.214C717.569 655.056 717.538 654.897 717.511 654.738C717.484 654.579 717.461 654.419 717.442 654.258C717.422 654.098 717.406 653.937 717.395 653.776C717.384 653.614 717.376 653.452 717.372 653.29C717.369 653.129 717.369 652.967 717.373 652.805C717.378 652.643 717.386 652.482 717.398 652.32C717.411 652.158 717.427 651.997 717.447 651.836C717.466 651.675 717.49 651.515 717.518 651.355C717.546 651.195 717.577 651.037 717.613 650.879C717.649 650.72 717.688 650.563 717.732 650.406C717.775 650.25 717.822 650.095 717.873 649.941C717.923 649.787 717.978 649.634 718.036 649.483C718.094 649.331 718.156 649.181 718.221 649.034C718.286 648.885 718.356 648.738 718.428 648.593C718.501 648.448 718.577 648.304 718.657 648.163C718.736 648.022 718.819 647.882 718.906 647.745C718.992 647.608 719.082 647.473 719.174 647.34C719.267 647.207 719.363 647.076 719.462 646.948C719.561 646.82 719.664 646.694 719.769 646.57C719.874 646.448 719.982 646.327 720.093 646.209C720.204 646.091 720.318 645.976 720.435 645.863C720.552 645.751 720.671 645.642 720.792 645.535C720.914 645.429 721.039 645.326 721.166 645.225C721.293 645.125 721.422 645.028 721.554 644.933C721.685 644.84 721.819 644.749 721.955 644.661C722.091 644.574 722.229 644.49 722.369 644.409C722.509 644.329 722.651 644.252 722.795 644.178C722.939 644.104 723.084 644.034 723.231 643.968C723.378 643.901 723.527 643.838 723.677 643.779L728.102 642.034C728.401 641.916 728.706 641.813 729.017 641.724C729.327 641.636 729.641 641.564 729.958 641.506C730.275 641.449 730.593 641.407 730.914 641.382C731.235 641.356 731.556 641.346 731.878 641.352C732.2 641.358 732.52 641.38 732.84 641.418C733.159 641.456 733.475 641.509 733.788 641.578C734.102 641.647 734.411 641.732 734.716 641.831C735.022 641.932 735.322 642.047 735.616 642.176C735.91 642.305 736.196 642.449 736.475 642.607C736.755 642.765 737.026 642.937 737.289 643.122C737.551 643.307 737.804 643.504 738.047 643.714C738.29 643.925 738.522 644.147 738.744 644.38C738.965 644.613 739.174 644.857 739.371 645.112C739.569 645.366 739.753 645.629 739.925 645.902C740.096 646.175 740.254 646.455 740.398 646.744C740.542 647.032 740.672 647.327 740.787 647.629L740.824 647.727C740.891 647.881 740.955 648.037 741.016 648.196L742.437 651.92C742.497 652.078 742.554 652.238 742.606 652.397L742.641 652.489C742.698 652.64 742.752 652.792 742.802 652.946C742.852 653.099 742.899 653.253 742.942 653.409C742.984 653.565 743.023 653.722 743.058 653.88C743.093 654.038 743.124 654.196 743.151 654.355C743.178 654.515 743.201 654.675 743.22 654.835C743.239 654.996 743.255 655.157 743.267 655.318C743.278 655.48 743.286 655.641 743.289 655.803C743.293 655.965 743.292 656.127 743.288 656.288C743.284 656.451 743.276 656.613 743.264 656.774C743.251 656.935 743.235 657.097 743.215 657.258C743.195 657.418 743.171 657.579 743.143 657.738C743.115 657.898 743.084 658.057 743.048 658.215C743.012 658.373 742.973 658.531 742.93 658.687C742.887 658.844 742.84 658.999 742.789 659.153C742.739 659.306 742.684 659.459 742.626 659.611C742.568 659.762 742.506 659.912 742.441 660.061C742.375 660.209 742.305 660.355 742.233 660.501C742.161 660.646 742.085 660.789 742.005 660.93C741.926 661.072 741.843 661.211 741.756 661.348C741.67 661.486 741.58 661.621 741.488 661.753C741.395 661.887 741.299 662.018 741.2 662.146C741.101 662.274 740.998 662.4 740.893 662.523C740.788 662.646 740.679 662.766 740.568 662.885C740.457 663.003 740.343 663.118 740.227 663.23C740.11 663.342 739.991 663.452 739.869 663.558C739.747 663.665 739.623 663.769 739.495 663.869C739.368 663.969 739.239 664.066 739.108 664.16C738.976 664.254 738.842 664.345 738.706 664.433C738.571 664.52 738.433 664.604 738.293 664.684C738.152 664.765 738.01 664.843 737.867 664.916C737.723 664.99 737.577 665.06 737.43 665.126C737.284 665.192 737.135 665.256 736.985 665.315L736.784 665.394L736.549 665.49L733.021 666.881C732.942 666.912 732.862 666.943 732.782 666.972L732.56 667.059C732.26 667.177 731.955 667.281 731.644 667.369C731.335 667.458 731.021 667.53 730.703 667.587C730.386 667.644 730.067 667.686 729.747 667.712C729.426 667.738 729.105 667.747 728.784 667.742C728.462 667.736 728.142 667.714 727.822 667.676C727.503 667.639 727.187 667.585 726.873 667.516C726.56 667.446 726.25 667.362 725.944 667.262C725.639 667.162 725.34 667.048 725.046 666.918C724.752 666.788 724.466 666.644 724.186 666.487C723.907 666.329 723.636 666.157 723.373 665.972C723.111 665.787 722.858 665.589 722.615 665.379C722.372 665.169 722.14 664.948 721.918 664.714C721.697 664.481 721.488 664.237 721.29 663.983C721.093 663.728 720.908 663.464 720.737 663.192C720.565 662.919 720.407 662.638 720.263 662.35C720.119 662.061 719.99 661.766 719.875 661.464ZM1060.95 796.276C960.745 787.113 884.59 867.241 846.439 952.638C845.89 953.871 845.382 954.473 844.915 954.442C844.448 954.412 844.022 953.752 843.638 952.464C837.251 930.765 835.409 906.794 835.95 883.821C837.112 834.131 854.652 793.123 888.569 760.795C923.724 727.285 987.423 704.562 1035.28 709.806C1104.97 717.472 1158.94 769.009 1188.25 830.761C1188.97 832.275 1189.15 833.215 1188.76 833.581C1188.39 833.944 1187.47 833.744 1186.02 832.982C1146.66 812.541 1104.97 800.305 1060.95 796.276ZM638.555 731.928C641.798 734.942 645.483 735.291 649.61 732.977C646.007 730.53 642.322 730.18 638.555 731.928ZM668.034 734.228L671.621 735.577L672.014 734.553C672.118 734.282 672.123 733.984 672.028 733.71C671.934 733.436 671.747 733.204 671.498 733.054C670.286 732.389 669.131 732.78 668.034 734.228ZM493.003 809.758C495.951 811.722 499.022 811.93 502.216 810.383C499.251 808.252 496.18 808.044 493.003 809.758ZM427.291 819.127C429.944 821.657 433.031 821.865 436.553 819.751C435.579 818.253 434.463 817.353 433.203 817.052C431.496 816.644 429.525 817.335 427.291 819.127ZM378.774 827.443C376.841 825.695 374.54 825.129 371.871 825.745C371.775 827.632 372.122 828.829 372.912 829.335C374.01 830.039 375.964 829.408 378.774 827.443ZM169.342 854.706C173.699 856.304 177.998 856.162 182.239 854.282C177.817 852.967 173.518 853.108 169.342 854.706Z" fill="#4CA30D"/>
</svg>
