<svg width="2744" height="1024" viewBox="0 0 2744 1024" fill="none" xmlns="http://www.w3.org/2000/svg">
<g clip-path="url(#clip0_124_105)">
<path d="M2298.42 13.5688C2274.25 19.0522 2231.7 23.9572 2221.34 23.7063L2234.94 86.2515C2248.55 83.3076 2280.1 83.6915 2286.76 86.0979L2286.78 85.463C2301.47 110.008 2332.64 119.895 2359.07 107.453C2387.22 94.1977 2399.31 60.6057 2386.07 32.4153C2372.82 4.23 2339.26 -7.86843 2311.1 5.38711C2306.42 7.58869 2302.18 10.3586 2298.42 13.5688ZM2369.07 40.4178C2373.31 49.4399 2373.8 59.7756 2370.42 69.1548C2367.05 78.5339 2360.08 86.1894 2351.07 90.4396C2346.6 92.5408 2341.77 93.7414 2336.84 93.973C2331.91 94.2046 2326.99 93.4625 2322.35 91.7892C2317.7 90.1159 2313.44 87.5442 2309.79 84.2212C2306.14 80.8981 2303.19 76.8888 2301.09 72.4225C2296.85 63.4013 2296.37 53.0655 2299.74 43.6861C2303.12 34.3067 2310.08 26.6508 2319.09 22.4007C2323.56 20.2996 2328.39 19.0991 2333.32 18.8678C2338.25 18.6366 2343.18 19.379 2347.82 21.0528C2352.46 22.7265 2356.73 25.2988 2360.38 28.6224C2364.02 31.9461 2366.98 35.956 2369.07 40.4229V40.4178Z" fill="#4CA30D"/>
<path d="M1968.38 118.809L2005.76 194.712C2054.58 167.705 2164.53 109.363 2213.87 92.042L2198.4 29.4609C2144.7 40.5968 2047.77 75.2537 1968.38 118.804V118.809ZM1795.08 131.901L1855.04 102.318L1882.86 158.806L1911.08 144.885L1949.33 222.555L1921.11 236.481L1952.4 300.03L1892.44 329.613L1795.08 131.901ZM182.547 1024C297.643 947.907 345.289 806.94 354.72 745.972C522.004 726.065 708.431 674.113 892.504 607.697C923.063 611.259 953.665 614.439 984.304 617.236C801.604 691.526 624.935 751.409 487.337 774.889C480.799 791.283 463.13 826.329 444.79 835.381C563.102 818.47 787.366 741.615 1060.31 623.743C1120.62 628.556 1180.56 632.621 1233.78 636.226L1243.4 636.881C1137.36 689.519 1038.5 737.14 965.729 771.454C644.749 928.057 309.864 1005.07 182.547 1024ZM1793.4 340.912C1815.16 326.996 1833.8 314.243 1848.62 302.958L1821.84 248.564C1769.91 277.248 1717.71 305.423 1665.23 333.084C1710.94 336.412 1755.25 339.207 1793.4 340.917V340.912ZM1605.18 328.496C1683.24 288.269 1752.37 251.196 1807.94 220.338L1788.64 181.155C1723.95 220.23 1636.73 269.484 1534.65 322.624C1557.53 324.605 1581.26 326.587 1605.18 328.496ZM1918.13 141.403L1946.35 127.482L1984.6 205.152L1956.38 219.078L1918.13 141.409V141.403ZM0 418.464C155.314 398.804 274.475 279.237 314.641 221.909C850.198 411.317 1699.66 397.616 2057.44 367.091V416.672C1681.79 434.935 846.02 440.265 435.144 317.954C420.266 331.353 384.713 358.156 361.504 358.156C599.33 436.026 1306.51 487.297 2057.44 452.384V521.206C1855.71 560.517 1217.65 559.923 923.838 554.711C518.599 552.924 139.099 463.136 0 418.464ZM2164.55 320.187H2088.68V570.342H2164.55V489.939H2200.26V391.661H2164.55V320.187ZM2209.18 391.661H2244.89V489.939H2209.18V391.661ZM2271.66 489.939V393.888C2374.31 389.424 2490.35 402.823 2550.6 418.459L2534.98 489.933C2476.07 482.786 2334.89 486.954 2271.66 489.933V489.939Z" fill="#4CA30D"/>
<path d="M2665.6 452.891C2638.87 447.003 2594.07 431.883 2583.84 426.769L2568.07 495.632C2583.04 499.093 2614.37 514.315 2619.9 519.844L2620.21 519.219C2623.36 550.646 2649.87 575.18 2682.09 575.18C2716.44 575.18 2744.29 547.313 2744.29 512.927C2744.29 478.547 2716.44 450.674 2682.09 450.674C2676.38 450.674 2670.85 451.447 2665.6 452.891ZM2723.56 512.927C2723.56 535.849 2704.99 554.429 2682.09 554.429C2659.2 554.429 2640.63 535.849 2640.63 512.927C2640.63 490.01 2659.2 471.425 2682.09 471.425C2704.99 471.425 2723.56 490.01 2723.56 512.927Z" fill="#4CA30D"/>
</g>
<defs>
<clipPath id="clip0_124_105">
<rect width="2744" height="1024" fill="white"/>
</clipPath>
</defs>
</svg>
