<svg width="1024" height="1024" viewBox="0 0 1024 1024" fill="none" xmlns="http://www.w3.org/2000/svg">
<path d="M452.782 298.24L553.221 266.506C555.464 265.759 556.409 266.592 556.058 269.005L517.781 529.321C517.443 531.494 516.356 533.48 514.709 534.937C513.061 536.393 510.957 537.229 508.759 537.298C506.559 537.371 504.403 536.673 502.663 535.324C500.924 533.974 499.712 532.059 499.236 529.91L450.606 301.926C450.21 300.042 450.937 298.813 452.787 298.24H452.782ZM474.097 513.715C475.725 521.177 476.254 527.454 475.684 532.547C475.473 534.471 474.669 536.282 473.383 537.729C472.096 539.175 470.392 540.186 468.506 540.621C466.629 541.058 464.662 540.894 462.883 540.154C461.103 539.414 459.601 538.133 458.588 536.494L335.708 341.422C335.039 340.326 334.798 339.023 335.029 337.76C335.26 336.497 335.949 335.364 336.963 334.577L418.729 271.77C420.443 270.455 421.542 270.851 422.026 272.957C439.318 353.273 456.675 433.526 474.097 513.715ZM682.767 310.748L555.863 544.461C555.422 545.3 554.72 545.972 553.862 546.376C553.005 546.78 552.039 546.893 551.112 546.698C535.931 543.867 540.222 532.941 541.742 521.815C551.771 449.879 562.086 378.03 572.687 306.268C573.042 303.766 574.473 302.56 576.978 302.648L680.325 306.468C683.448 306.598 684.262 308.024 682.767 310.748ZM298.619 322.862L438.262 546.504C439.431 548.337 439.911 550.527 439.614 552.681C439.318 554.836 438.265 556.815 436.644 558.264C435.012 559.725 432.919 560.567 430.73 560.644C428.54 560.721 426.394 560.027 424.663 558.684L239.821 415.36C238.95 414.687 238.359 413.715 238.164 412.632C237.969 411.549 238.184 410.432 238.766 409.498L294.067 322.796C295.607 320.423 297.126 320.445 298.624 322.862H298.619ZM692.27 349.722L786.703 388.035C789.475 389.178 789.74 390.714 787.497 392.643L589.65 567.373C587.999 568.831 585.887 569.663 583.685 569.722C581.483 569.781 579.33 569.063 577.603 567.695C575.879 566.33 574.692 564.401 574.252 562.246C573.811 560.092 574.146 557.851 575.196 555.919L684.877 352.353C686.549 349.237 689.014 348.36 692.27 349.722ZM399.391 590.019L176.538 518.129C173.5 517.163 172.356 515.012 173.107 511.677L194.488 413.056C194.6 412.542 194.84 412.064 195.187 411.668C195.533 411.273 195.975 410.971 196.47 410.793C196.965 410.615 197.498 410.566 198.017 410.65C198.536 410.734 199.026 410.949 199.439 411.274L407.91 574.09C411.469 576.809 412.529 581.704 410.419 585.651C409.395 587.565 407.725 589.054 405.707 589.853C403.689 590.653 401.453 590.711 399.396 590.019H399.391ZM858.24 504.699L611.031 600.684C607.176 602.127 602.839 600.632 600.694 597.13C599.655 595.431 599.242 593.421 599.527 591.45C599.812 589.478 600.777 587.668 602.255 586.332L776.607 431.094C778.324 429.513 780.063 429.513 781.824 431.094L859.034 500.68C860.969 502.438 860.705 503.777 858.24 504.699ZM878.633 526.223L895.79 559.473C895.918 559.734 895.989 560.019 895.997 560.31C896.006 560.601 895.952 560.89 895.84 561.158C895.727 561.426 895.559 561.667 895.345 561.865C895.132 562.063 894.878 562.212 894.602 562.304L406.19 722.611C405.811 722.725 405.408 722.726 405.028 722.615C404.649 722.505 404.31 722.286 404.051 721.987C403.793 721.688 403.627 721.32 403.573 720.928C403.519 720.537 403.58 720.138 403.748 719.78L419.19 688.312C419.442 687.84 419.868 687.486 420.378 687.324L876.124 525.235C876.591 525.068 877.103 525.076 877.564 525.258C878.026 525.44 878.405 525.783 878.633 526.223ZM123.146 560.655L132.649 529.91C133.263 527.981 134.538 527.324 136.474 527.939L482.145 638.275C485.05 639.241 485.05 640.207 482.145 641.172L454.165 650.783C452.011 651.534 449.833 651.622 447.631 651.049L125.655 565.263C123.232 564.605 122.395 563.069 123.146 560.655ZM479.109 724.06L572.887 689.961C576.01 688.817 576.671 689.65 574.869 692.46C552.648 727.48 520.795 739.33 479.309 728.008C475.131 726.868 475.064 725.552 479.109 724.06Z" fill="#4CA30D"/>
</svg>
