<svg width="1024" height="1024" viewBox="0 0 1024 1024" fill="none" xmlns="http://www.w3.org/2000/svg">
<path d="M929.639 414.858C915.026 400.235 894.792 401.444 894.792 416.077C894.792 422.784 893.102 431.918 891.413 437.401C886.359 451.41 918.395 450.201 930.765 436.183C939.198 425.216 939.198 423.997 929.639 414.858ZM929.762 581.514C916.004 568.238 886.784 568.238 891.362 581.514C893.082 586.946 894.802 595.998 894.802 602.639C894.802 618.322 924.032 618.322 933.197 602.639C938.932 593.582 938.358 589.358 929.762 581.514Z" fill="#4CA30D"/>
<path d="M886.134 657.152C880.021 640.22 875.741 636.59 864.139 637.798C856.193 638.402 847.028 642.642 843.367 647.475C831.755 662.599 810.374 669.26 773.105 669.26C730.947 669.26 712.008 661.995 712.008 645.662C712.008 632.965 701.625 623.283 685.128 620.257C659.467 615.419 650.297 584.565 650.297 508.948C650.297 448.46 651.526 436.362 663.128 418.212C671.678 404.9 681.457 397.04 692.46 395.832C705.286 394.619 709.561 390.384 712.008 375.864L715.065 357.719L768.825 355.906C818.924 354.089 823.814 355.292 840.915 369.817C851.308 378.291 863.53 384.937 868.409 384.937C876.959 384.937 889.186 361.953 889.186 345.016C889.186 332.313 848.251 317.189 834.197 324.449C828.094 328.084 801.209 330.501 774.938 330.501C741.945 330.501 723.006 333.522 714.456 339.573C708.342 344.412 694.283 348.646 683.29 348.646C666.799 348.646 663.128 351.667 657.025 371.63C652.744 383.733 644.194 403.092 636.862 413.972C626.468 431.529 624.641 444.836 624.641 508.953C624.641 573.076 626.474 586.992 636.862 604.533C643.585 615.424 652.744 634.777 656.41 646.876C663.128 666.844 671.683 672.885 689.404 669.865C691.851 669.266 702.234 673.5 712.008 678.338C723.001 683.781 746.835 687.411 776.162 687.411C801.813 687.411 828.094 690.432 834.811 693.458C843.362 698.296 852.527 697.093 870.242 689.223C894.07 678.338 894.07 678.338 886.134 657.162V657.152ZM683.29 383.744C677.187 382.53 672.298 377.692 672.298 372.848C672.298 368.015 677.182 363.172 683.29 361.963C690.627 360.755 693.684 363.776 693.684 372.848C693.684 381.926 690.627 384.952 683.29 383.744ZM686.956 654.745C676.563 660.797 664.966 646.886 673.516 638.412C680.848 631.152 693.679 635.996 693.679 645.068C693.679 648.089 690.627 652.334 686.956 654.745Z" fill="#4CA30D"/>
<path d="M864.702 397.189C856.121 393.626 845.702 391.24 842.02 391.24C837.73 391.24 830.987 385.884 826.696 379.336C820.562 369.209 812.601 367.427 769.69 367.427C729.841 367.427 720.64 369.219 723.098 375.762C728.003 387.077 710.221 409.098 696.74 409.098C689.992 409.098 679.573 415.053 672.216 422.2C661.187 433.5 659.953 443.029 659.953 505.534C659.953 579.349 667.93 605.537 689.383 605.537C703.483 605.537 727.389 629.345 723.098 638.869C720.64 645.422 729.841 647.204 771.523 647.204C815.657 647.204 823.634 645.427 829.763 635.3C834.049 629.345 846.925 622.203 859.183 619.827C870.831 618.035 880.635 615.655 880.635 614.467C880.635 613.873 876.35 601.37 870.831 587.08C857.344 551.967 857.344 462.669 870.831 428.145C880.031 402.545 880.031 402.545 864.702 397.189ZM709.028 318.3C695.343 307.164 630.513 312.433 601.37 327.091C586.497 334.71 572.222 348.186 563.892 364.012L549.617 388.624L596.015 386.867C641.219 385.111 642.402 385.111 647.762 367.529C654.895 346.43 661.443 341.156 682.261 341.156C690.586 341.156 701.891 337.639 707.835 333.532C717.353 326.497 717.353 325.33 709.028 318.3ZM699.224 685.681C659.748 677.509 653.876 673.429 647.394 653.589L640.328 633.749L594.975 632.008L549.612 630.257L561.398 653.594C567.875 665.846 582.595 682.184 594.381 689.178C626.192 709.023 715.131 713.098 715.131 695.015C715.131 692.096 708.061 688.016 699.224 685.681ZM573.067 397.102C543.32 397.102 517.735 400.282 515.953 403.461C513.577 407.276 448.728 409.82 341.643 409.82C151.86 409.82 86.4107 414.275 96.5381 425.078C101.289 430.167 166.733 432.077 307.733 432.077C463.601 432.077 514.166 433.987 519.522 440.346C524.273 444.795 542.715 447.975 563.549 447.975C596.864 447.975 601.022 446.7 612.926 428.897C620.063 418.724 626.013 407.276 626.013 403.461C626.013 399.647 605.789 397.102 573.067 397.102ZM615.256 593.828C605.707 576.481 602.712 575.15 562.709 575.15C539.423 575.15 518.523 577.147 516.132 580.485C513.741 583.158 419.989 585.145 307.728 585.145C188.893 585.145 98.7294 587.822 91.5614 591.826C69.4635 603.832 125.594 607.171 322.658 607.831C442.082 608.497 513.147 611.169 515.538 615.168C519.716 622.51 626.002 624.512 626.002 617.17C626.002 613.837 621.231 603.832 615.261 593.828H615.256ZM564.721 458.578C537.565 456.842 503.921 454.528 489.16 453.95L462.587 452.209L458.466 481.168C456.1 497.377 455.512 524.012 457.288 540.805L460.821 570.911L523.992 568.013C620.806 562.801 613.131 567.44 613.131 510.695V461.476L564.726 458.578H564.721ZM591.294 537.324C561.188 569.754 508.053 526.326 534.616 490.424C548.788 471.9 567.675 468.429 587.157 480.584C604.278 492.155 606.633 521.114 591.294 537.329V537.324Z" fill="#4CA30D"/>
<path d="M580.705 489.897C565.407 482.258 553.784 485.535 545.219 500.27C540.324 508.457 540.933 513.362 550.108 523.188C559.898 534.656 563.574 535.194 577.649 529.193C597.842 521.006 599.675 498.632 580.705 489.897ZM540.273 353.915C534.078 355.026 523.541 357.806 516.106 359.476C503.091 362.814 485.12 389.509 491.94 395.075C493.793 397.297 501.233 395.628 507.428 391.737C514.238 387.845 522.921 385.06 526.638 385.06C535.311 385.06 550.18 368.374 550.805 358.364C550.805 353.915 546.468 352.246 540.273 353.915ZM542.188 643.635C537.774 638.101 530.831 633.667 526.408 633.667C522.629 633.667 513.792 630.902 506.849 627.026C489.175 617.616 485.397 624.261 497.377 644.194C503.061 654.162 511.903 661.351 518.846 661.351C525.783 661.351 535.25 663.015 540.933 664.674C553.549 669.108 554.184 656.927 542.193 643.635H542.188ZM475.208 366.116C471.26 366.116 456.607 372.296 442.512 379.705L417.147 393.293L438.564 395.761C453.786 397 463.928 394.522 471.26 387.118C483.661 374.764 485.351 366.111 475.203 366.116H475.208ZM471.573 632.115C459.623 621.835 415.806 619.126 422.062 628.864C428.892 639.145 481.813 654.3 481.813 646.19C481.813 642.939 477.266 636.99 471.573 632.115ZM402.197 447.406H361.385L355.057 470.446C351.038 482.857 348.16 500.583 348.16 509.445C348.16 518.303 351.038 536.028 355.057 548.434L361.385 571.474H443.013V447.401L402.197 447.406Z" fill="#4CA30D"/>
</svg>
