<svg width="3113" height="1024" viewBox="0 0 3113 1024" fill="none" xmlns="http://www.w3.org/2000/svg">
<path d="M673.66 705.577C673.66 705.577 783.005 758.181 976.806 779.627C1135.71 797.217 1755.76 805.83 1905.53 751.509C1905.53 751.509 1845.25 654.658 1859.57 586.157C1869.23 539.863 1892.74 515.303 1942.31 494.295C1942.69 483.6 1943.07 466.391 1942.31 457.546H636.887C636.887 603.161 673.66 705.577 673.66 705.577ZM1951.5 181.95C1951.5 181.95 2025.64 194.634 2043.43 209.507C2043.43 209.507 2083.37 337.466 2071.01 512.652C2115.31 523.198 2174.23 619.875 2098.59 733.143C2078.41 756.364 1896.34 769.891 1896.34 769.891C1910.12 760.858 1921.51 748.614 1929.51 734.211C1937.52 719.808 1941.9 703.676 1942.3 687.203C1942.3 636.449 1926.89 619.396 1887.14 595.34C1904.48 530.927 1969.88 512.661 1969.88 512.661C1969.88 512.661 1986.75 397.667 1951.5 181.95ZM324.32 209.515C304.448 196.08 285.969 180.693 269.156 163.584C257.016 151.428 233.423 109.774 232.382 108.47C216.428 107.644 48.5167 158.018 48.5167 457.546H269.164C269.164 362.768 284.334 262.226 324.32 209.515ZM434.639 200.324C434.639 200.324 416.19 200.489 407.057 200.324C397.924 200.159 351.901 227.922 351.901 227.922C351.901 227.922 305.937 306.647 305.937 457.579H600.114C600.114 364.759 604.243 280.857 636.887 209.548C636.887 209.515 470.851 200.324 434.639 200.324ZM673.66 209.515C673.66 209.515 783.105 157.44 977.029 136.018C1136.03 118.462 1775.39 124.366 1923.92 181.95C1923.92 181.95 1949.77 371.357 1942.31 457.538H636.887C636.148 373.453 648.555 289.769 673.66 209.515ZM1841.19 595.34C1862.99 595.352 1884.29 601.827 1902.41 613.947C1920.53 626.067 1934.66 643.287 1942.99 663.431C1951.32 683.576 1953.5 705.739 1949.24 727.119C1944.98 748.499 1934.48 768.136 1919.06 783.547C1903.64 798.958 1883.99 809.451 1862.61 813.7C1841.23 817.949 1819.07 815.763 1798.93 807.417C1778.79 799.072 1761.58 784.943 1749.47 766.815C1737.35 748.688 1730.89 727.377 1730.89 705.577C1730.9 676.334 1742.53 648.292 1763.21 627.62C1783.89 606.947 1811.94 595.336 1841.19 595.34ZM2075.25 215.238L2172.14 237.072C2172.14 237.072 2218.1 249.369 2218.1 457.563C2218.1 665.757 2153.23 713.678 2126.17 733.151C2128.9 726.676 2157.44 690.977 2162.94 641.288C2165.97 614.037 2159.75 565.694 2144.55 540.234C2119.24 497.829 2098.59 494.303 2098.59 494.303C2098.59 494.303 2103.33 281.905 2075.25 215.238ZM2254.87 457.546C2254.87 299.289 2218.1 227.889 2218.1 227.889C2218.1 227.889 2277.29 194.155 2319.23 172.767C2366.3 148.769 2525.4 71.7212 2668.54 71.7212C2813.94 71.7212 2940.5 133.335 3008.69 255.447C3069.45 364.238 3063.85 365.684 3063.85 365.684L3091.43 374.866C3102.14 401.251 3108.36 429.236 3109.86 457.67H3000.98C3000.98 457.67 3003.46 325.442 2935.21 237.072C2866.95 148.703 2733.61 127.025 2693.98 127.025C2515.24 127.025 2429.32 170.438 2374.39 200.324C2374.39 200.324 2459.1 254.827 2459.1 457.67H2386.94C2386.94 457.67 2389.88 288.206 2310.03 227.922C2300.59 230.188 2291.37 233.261 2282.46 237.105C2282.46 237.105 2346.8 296.217 2346.8 457.596C2346.8 457.546 2254.87 456.786 2254.87 457.546ZM2493.94 384.049C2493.94 384.049 2494.87 284.804 2429.58 209.507C2429.58 209.507 2551.8 154.393 2677.8 154.393C2798.1 154.393 2890.03 222.869 2916.81 264.63C2946.74 311.354 2953.59 346.186 2953.59 384.049C2953.55 384.049 2509.63 384.405 2493.94 384.049ZM2264.11 411.607H3036.33V457.538L2264.2 457.753L2264.11 411.607ZM39.3833 632.097L30.1425 622.897L2.56055 641.272V769.874L103.689 880.111L241.598 898.486L333.527 824.989L811.57 834.172L986.236 935.226H1032.21L1105.71 843.363C1105.71 843.363 1102.33 840.299 1096.37 834.353C1067.47 834.783 987.269 835.179 931.039 824.989C849.846 810.289 728.791 779.057 728.791 779.057H342.71L315.128 760.683C315.128 760.683 293.327 779.52 241.582 852.546C55.4369 791.428 39.3337 632.08 39.3337 632.08L39.3833 632.097ZM407.107 843.388L434.689 870.945H453.071C453.071 870.945 732.276 880.128 738.057 880.128C778.868 880.128 921.923 971.991 921.923 971.991V1008.74L931.114 1017.92L977.078 953.625L802.362 852.554L407.107 843.388ZM1592.98 117.653C1592.98 117.653 1612.68 62.5382 1712.49 62.5382C1769.37 62.5382 1786.03 34.981 1786.03 34.981L1795.23 44.164C1795.23 44.164 1792 73.3645 1786.02 80.9289C1782.09 85.8837 1785.67 104.365 1813.6 99.3031C1829.23 96.4706 1838.57 87.8492 1850.38 80.9289C1858.22 76.3292 1903.05 55.5601 1942.31 62.5547C2002.75 73.2902 2018.44 100.633 2071.01 126.86C2064.65 135.234 2038.66 136.043 2034.23 136.043C2025.37 119.709 1994.14 116.331 2006.66 145.226C2013.1 160.091 2043.43 209.532 2043.43 209.532C2043.43 209.532 1984.8 200.646 1951.51 191.158C1952.33 162.824 1952.78 136.134 1923.92 117.661C1915.68 112.41 1906.11 109.621 1896.34 109.621C1886.57 109.621 1877 112.41 1868.76 117.661C1855.12 126.902 1841.19 136.035 1841.19 136.035L1767.64 126.852C1764.21 124.18 1761.12 121.096 1758.45 117.669C1742.84 76.0319 1669.42 84.0752 1638.94 117.669H1592.98V117.653ZM2901.2 117.653L2916.78 99.2783L2999.52 163.584L3036.29 181.958C3023.56 190.489 3011.28 199.687 2999.52 209.515C2952.14 140.858 2901.19 117.653 2901.19 117.653H2901.2ZM2889.13 44.1557L2925.92 80.9041L3017.88 154.401L3091.45 181.958L3109.84 154.401L3054.66 108.461L2953.5 34.9645L2916.75 7.43213L2889.13 44.1557ZM39.3337 733.134C42.9681 733.138 46.5199 734.219 49.5399 736.241C52.5599 738.263 54.9124 741.135 56.2998 744.494C57.6873 747.853 58.0473 751.549 57.3345 755.112C56.6216 758.676 54.8679 761.949 52.2951 764.516C49.7223 767.083 46.446 768.829 42.8805 769.534C39.3151 770.239 35.6208 769.87 32.2647 768.475C28.9087 767.08 26.0417 764.721 24.0264 761.697C22.0111 758.672 20.9381 755.118 20.943 751.484C20.9518 746.613 22.8935 741.944 26.3417 738.504C29.7899 735.063 34.4627 733.132 39.3337 733.134ZM1841.19 622.897C1857.54 622.909 1873.52 627.768 1887.1 636.86C1900.69 645.951 1911.28 658.868 1917.53 673.977C1923.78 689.086 1925.41 705.708 1922.21 721.743C1919.02 737.777 1911.14 752.504 1899.57 764.061C1888.01 775.618 1873.27 783.487 1857.24 786.672C1841.2 789.858 1824.58 788.217 1809.47 781.958C1794.37 775.698 1781.46 765.101 1772.38 751.506C1763.3 737.91 1758.45 721.927 1758.45 705.577C1758.46 683.642 1767.18 662.608 1782.69 647.103C1798.21 631.598 1819.25 622.891 1841.19 622.897ZM1841.19 650.455C1852.08 650.464 1862.73 653.705 1871.79 659.767C1880.85 665.828 1887.9 674.439 1892.07 684.51C1896.23 694.581 1897.32 705.661 1895.19 716.349C1893.05 727.036 1887.8 736.852 1880.09 744.555C1872.38 752.258 1862.56 757.503 1851.88 759.627C1841.19 761.75 1830.11 760.657 1820.04 756.486C1809.97 752.314 1801.37 745.251 1795.31 736.19C1789.26 727.128 1786.02 716.475 1786.02 705.577C1786.02 698.335 1787.45 691.165 1790.23 684.476C1793 677.786 1797.06 671.709 1802.19 666.59C1807.31 661.471 1813.39 657.412 1820.08 654.643C1826.77 651.875 1833.94 650.451 1841.19 650.455ZM1841.19 668.829C1848.45 668.834 1855.56 670.993 1861.6 675.034C1867.64 679.075 1872.34 684.816 1875.12 691.531C1877.9 698.247 1878.62 705.635 1877.2 712.762C1875.78 719.888 1872.28 726.434 1867.14 731.571C1862 736.708 1855.45 740.205 1848.32 741.621C1841.19 743.037 1833.81 742.308 1827.09 739.526C1820.38 736.744 1814.64 732.034 1810.6 725.991C1806.57 719.948 1804.41 712.844 1804.41 705.577C1804.42 695.828 1808.29 686.48 1815.19 679.588C1822.09 672.697 1831.44 668.827 1841.19 668.829ZM875.909 126.835L1078.16 108.461V797.432L875.909 779.066V126.835ZM912.682 145.21L1041.38 126.835V788.249L912.682 769.874V145.21ZM981.628 181.958C987.984 181.969 994.194 183.865 999.473 187.404C1004.75 190.944 1008.86 195.969 1011.29 201.844C1013.71 207.719 1014.34 214.182 1013.09 220.414C1011.85 226.646 1008.78 232.369 1004.28 236.86C999.784 241.35 994.056 244.406 987.821 245.642C981.587 246.878 975.126 246.238 969.255 243.803C963.383 241.368 958.366 237.247 954.836 231.962C951.306 226.676 949.422 220.463 949.422 214.107C949.424 209.881 950.259 205.696 951.879 201.793C953.499 197.89 955.872 194.344 958.863 191.359C961.854 188.373 965.404 186.006 969.31 184.393C973.217 182.78 977.402 181.953 981.628 181.958ZM324.286 705.577C304.431 719.007 285.965 734.385 269.164 751.484C257.025 763.64 233.431 805.293 232.391 806.598C216.436 807.424 48.5249 757.05 48.5249 457.521H269.164C269.164 552.316 284.334 652.866 324.32 705.577H324.286ZM434.606 714.76C434.606 714.76 416.157 714.595 407.024 714.76C397.891 714.925 351.868 687.203 351.868 687.203C351.868 687.203 305.904 608.479 305.904 457.546H600.114C600.114 550.375 604.243 634.269 636.887 705.577C636.887 705.577 470.851 714.76 434.639 714.76H434.606ZM2493.94 531.266C2493.94 531.266 2494.87 630.437 2429.58 705.676C2429.58 705.676 2551.8 760.749 2677.8 760.749C2798.1 760.749 2890.03 692.323 2916.81 650.595C2946.74 603.904 2953.59 569.088 2953.59 531.249C2953.55 531.249 2509.63 530.911 2493.94 531.266ZM2264.11 503.478L3036.28 503.742V457.86L2264.16 457.645L2264.11 503.478ZM2254.91 457.546C2254.91 615.804 2218.14 687.203 2218.14 687.203C2218.14 687.203 2277.33 720.937 2319.27 742.317C2366.34 766.315 2525.44 843.371 2668.59 843.371C2813.99 843.371 2940.54 781.758 3008.74 659.646C3069.49 550.854 3063.89 549.409 3063.89 549.409L3091.47 540.226C3102.18 513.841 3108.41 485.856 3109.91 457.422H3000.98C3000.98 457.422 3003.46 589.626 2935.16 677.987C2866.87 766.348 2733.57 788.034 2693.94 788.034C2515.2 788.034 2429.28 744.621 2374.35 714.735C2374.35 714.735 2459.05 660.232 2459.05 457.389H2386.9C2386.9 457.389 2389.83 626.828 2310 687.17C2300.56 684.904 2291.33 681.831 2282.42 677.987C2282.42 677.987 2346.77 618.876 2346.77 457.497C2346.8 457.546 2254.87 458.322 2254.87 457.546H2254.91Z" fill="#4CA30D"/>
</svg>
