<svg width="8132" height="1024" viewBox="0 0 8132 1024" fill="none" xmlns="http://www.w3.org/2000/svg">
<path d="M6509.42 779.788V636.861L6453.77 548.117H6249.69V840.853H6324L6384.63 900.345H6183.05V123.437H6384.63L6324 182.946H6249.69V475.531H6453.71L6509.37 386.788V243.928C6509.37 243.928 6515.6 194.918 6580.7 182.544L6580.23 0.033489H6060.65V169.701H1438.26C1271.03 169.701 1179.62 0 1179.62 0H377.495C512.77 203.072 811.869 576.8 1180.56 576.8H5303.77C5433.95 576.8 5551.98 636.509 5645.09 749.498C5672.96 783.523 5697.38 820.227 5718 859.071H5976.74V858.418H6060.65V1023.72H6580.28L6580.75 841.205C6515.67 828.798 6509.42 779.788 6509.42 779.788ZM5303.85 689.085H1180.56C1046.15 689.085 910.325 647.744 776.824 566.217C662.384 493.899 559.041 405.361 470.023 303.369C386.063 209.058 310.563 107.544 244.396 0H0C0 0 367.917 859.054 1110.47 859.054H5587.65C5578.2 845.134 5568.06 831.689 5557.29 818.768C5485.42 732.72 5400.11 689.085 5303.77 689.085H5303.85ZM7997.72 571.274C7984.38 594.172 7963.87 612.037 7939.36 622.107C7914.85 632.177 7887.7 633.89 7862.12 626.983C7836.54 620.075 7813.94 604.931 7797.83 583.892C7781.72 562.853 7772.99 537.092 7772.99 510.593C7772.99 484.094 7781.72 458.334 7797.83 437.295C7813.94 416.256 7836.54 401.112 7862.12 394.204C7887.7 387.297 7914.85 389.01 7939.36 399.08C7963.87 409.15 7984.38 427.015 7997.72 449.913H8131.07C8117.86 401.843 8090.47 358.869 8052.47 326.597C8014.47 294.325 7967.63 274.251 7918.06 268.995C7868.48 263.738 7818.48 273.543 7774.56 297.13C7730.64 320.716 7694.84 356.99 7671.85 401.221H6579.3L6511.97 510.359L6579.3 620.769H7672.25C7695.38 664.835 7731.23 700.924 7775.14 724.346C7819.05 747.768 7868.99 757.439 7918.47 752.102C7967.95 746.766 8014.68 726.669 8052.59 694.423C8090.5 662.178 8117.83 619.275 8131.03 571.291H7997.69L7997.72 571.274Z" fill="#4CA30D"/>
</svg>
