<svg width="1024" height="1024" viewBox="0 0 1024 1024" fill="none" xmlns="http://www.w3.org/2000/svg">
<path d="M960.164 495.36H981.924C987.653 495.36 993.147 497.636 997.198 501.687C1001.25 505.738 1003.53 511.232 1003.53 516.961C1003.53 522.69 1001.25 528.185 997.198 532.236C993.147 536.287 987.653 538.563 981.924 538.563H960.164V495.36Z" fill="#4CA30D"/>
<path d="M704.845 495.36H945.71V538.563H704.845V495.36ZM753.019 519.363C753.019 519.677 753.002 519.989 752.968 520.299C752.94 520.614 752.896 520.924 752.834 521.231C752.773 521.539 752.696 521.844 752.604 522.148C752.512 522.448 752.406 522.743 752.287 523.034C752.164 523.324 752.027 523.607 751.877 523.884C751.73 524.163 751.57 524.433 751.396 524.693C751.218 524.955 751.031 525.208 750.833 525.45C750.631 525.693 750.42 525.925 750.198 526.147C749.972 526.368 749.739 526.58 749.496 526.781C749.251 526.979 748.998 527.167 748.739 527.345C748.476 527.515 748.204 527.676 747.924 527.826C747.648 527.976 747.363 528.111 747.069 528.23C746.779 528.35 746.482 528.456 746.179 528.548C745.878 528.637 745.573 528.712 745.262 528.773C744.955 528.835 744.644 528.881 744.33 528.911C744.016 528.946 743.7 528.963 743.383 528.963C743.069 528.963 742.755 528.946 742.441 528.911C742.127 528.881 741.815 528.835 741.504 528.773C741.197 528.715 740.89 528.64 740.582 528.548C740.282 528.456 739.987 528.35 739.697 528.23C739.406 528.111 739.121 527.976 738.842 527.826C738.565 527.679 738.295 527.519 738.033 527.345C737.77 527.167 737.515 526.979 737.27 526.781C737.027 526.58 736.795 526.368 736.573 526.147C736.348 525.925 736.135 525.693 735.933 525.45C735.735 525.208 735.548 524.955 735.37 524.693C735.2 524.433 735.039 524.163 734.889 523.884C734.739 523.61 734.602 523.327 734.479 523.034C734.36 522.743 734.254 522.448 734.162 522.148C734.073 521.847 733.998 521.542 733.937 521.231C733.872 520.924 733.824 520.614 733.793 520.299C733.762 519.989 733.747 519.677 733.747 519.363C733.747 519.045 733.764 518.731 733.798 518.42C733.826 518.106 733.872 517.796 733.937 517.489C733.998 517.181 734.073 516.876 734.162 516.572C734.254 516.272 734.362 515.977 734.484 515.686C734.604 515.396 734.739 515.113 734.889 514.836C735.036 514.557 735.196 514.287 735.37 514.028C735.548 513.765 735.735 513.512 735.933 513.27C736.138 513.027 736.351 512.795 736.573 512.573C736.795 512.352 737.027 512.14 737.27 511.939C737.515 511.741 737.77 511.553 738.033 511.375C738.295 511.205 738.565 511.044 738.842 510.894C739.121 510.744 739.406 510.609 739.697 510.49C739.987 510.37 740.284 510.264 740.587 510.172C740.888 510.083 741.193 510.008 741.504 509.947C741.811 509.885 742.123 509.839 742.441 509.809C742.755 509.775 743.069 509.757 743.383 509.757C743.7 509.757 744.016 509.775 744.33 509.809C744.644 509.839 744.955 509.885 745.262 509.947C745.569 510.005 745.876 510.08 746.184 510.172C746.484 510.264 746.779 510.37 747.069 510.49C747.363 510.609 747.648 510.744 747.924 510.894C748.204 511.041 748.476 511.201 748.739 511.375C748.998 511.553 749.251 511.741 749.496 511.939C749.739 512.14 749.972 512.352 750.198 512.573C750.42 512.795 750.631 513.027 750.833 513.27C751.031 513.512 751.218 513.765 751.396 514.028C751.57 514.287 751.732 514.557 751.882 514.836C752.029 515.11 752.164 515.393 752.287 515.686C752.406 515.977 752.512 516.272 752.604 516.572C752.696 516.873 752.773 517.178 752.834 517.489C752.896 517.796 752.942 518.106 752.973 518.42C753.003 518.731 753.019 519.043 753.019 519.357V519.363ZM801.193 528.957C801.507 528.957 801.821 528.942 802.135 528.911C802.449 528.881 802.761 528.835 803.072 528.773C803.379 528.715 803.685 528.64 803.988 528.548C804.292 528.456 804.589 528.35 804.879 528.23C805.169 528.111 805.454 527.976 805.734 527.826C806.011 527.679 806.28 527.519 806.543 527.345C806.806 527.167 807.06 526.979 807.306 526.781C807.548 526.58 807.781 526.368 808.003 526.147C808.228 525.925 808.439 525.693 808.637 525.45C808.839 525.208 809.026 524.955 809.201 524.693C809.378 524.433 809.54 524.163 809.687 523.884C809.837 523.61 809.974 523.327 810.097 523.034C810.216 522.743 810.322 522.448 810.414 522.148C810.503 521.847 810.578 521.542 810.639 521.231C810.701 520.924 810.749 520.614 810.783 520.299C810.813 519.989 810.829 519.677 810.829 519.363C810.829 519.045 810.812 518.731 810.778 518.42C810.747 518.106 810.701 517.796 810.639 517.489C810.578 517.181 810.503 516.876 810.414 516.572C810.322 516.272 810.214 515.977 810.091 515.686C809.972 515.396 809.837 515.113 809.687 514.836C809.54 514.557 809.378 514.287 809.201 514.028C809.026 513.765 808.839 513.512 808.637 513.27C808.439 513.027 808.228 512.795 808.003 512.573C807.781 512.352 807.548 512.14 807.306 511.939C807.06 511.741 806.806 511.553 806.543 511.375C806.28 511.205 806.011 511.044 805.734 510.894C805.454 510.744 805.169 510.609 804.879 510.49C804.589 510.37 804.292 510.264 803.988 510.172C803.688 510.083 803.381 510.008 803.067 509.947C802.76 509.885 802.449 509.839 802.135 509.809C801.821 509.775 801.507 509.757 801.193 509.757C800.875 509.757 800.56 509.775 800.246 509.809C799.932 509.839 799.621 509.885 799.314 509.947C799.003 510.005 798.696 510.08 798.392 510.172C798.092 510.264 797.797 510.37 797.506 510.49C797.213 510.609 796.928 510.744 796.651 510.894C796.372 511.041 796.1 511.201 795.837 511.375C795.575 511.553 795.322 511.741 795.08 511.939C794.837 512.14 794.603 512.352 794.378 512.573C794.156 512.795 793.945 513.027 793.743 513.27C793.545 513.512 793.358 513.765 793.18 514.028C793.006 514.287 792.844 514.557 792.694 514.836C792.547 515.11 792.412 515.393 792.289 515.686C792.17 515.977 792.064 516.272 791.972 516.572C791.88 516.873 791.803 517.178 791.741 517.489C791.68 517.796 791.634 518.106 791.603 518.42C791.572 518.731 791.557 519.043 791.557 519.357C791.557 519.675 791.572 519.989 791.603 520.299C791.637 520.614 791.683 520.924 791.741 521.231C791.803 521.539 791.88 521.844 791.972 522.148C792.064 522.448 792.17 522.743 792.289 523.034C792.412 523.324 792.549 523.607 792.699 523.884C792.846 524.163 793.006 524.433 793.18 524.693C793.358 524.955 793.545 525.208 793.743 525.45C793.945 525.693 794.156 525.925 794.378 526.147C794.603 526.368 794.837 526.58 795.08 526.781C795.322 526.979 795.575 527.167 795.837 527.345C796.1 527.515 796.372 527.676 796.651 527.826C796.928 527.976 797.213 528.111 797.506 528.23C797.797 528.35 798.094 528.456 798.397 528.548C798.698 528.637 799.003 528.712 799.314 528.773C799.621 528.835 799.932 528.881 800.246 528.911C800.56 528.946 800.875 528.963 801.193 528.963V528.957Z" fill="#4CA30D"/>
<path d="M680.755 476.16H680.765C687.185 476.16 690.396 479.37 690.396 485.791V543.329C690.396 549.75 687.185 552.96 680.765 552.96H680.755C674.334 552.96 671.124 549.75 671.124 543.329V485.791C671.124 479.37 674.334 476.16 680.755 476.16Z" fill="#4CA30D"/>
<path d="M54.502 495.36L76.18 519.363H656.67V495.36H54.5071H54.502Z" fill="#4CA30D"/>
<path d="M25.5996 495.36L59.3199 538.563H656.67V528.957H66.5494L40.0534 495.36H25.5996Z" fill="#4CA30D"/>
</svg>
