<svg width="9966" height="1020" viewBox="0 0 9966 1020" fill="none" xmlns="http://www.w3.org/2000/svg">
<path d="M6955.45 321.189V806.5C6971.06 805.423 6986.72 804.43 7002.29 803.291C8071.02 727.347 8875.14 619.022 9370.72 539.662V48.3677C8895.25 126.589 8071.75 241.85 6966.72 320.382L6955.45 321.189ZM9185.27 167.439L9261.57 336.407L9185.27 505.396L9108.98 336.407L9185.27 167.439ZM8894.02 208.847L8970.3 377.837L8894.02 546.805L8817.71 377.837L8894.02 208.847ZM8602.82 243.507L8679.11 412.475L8602.82 581.526L8526.52 412.537L8602.82 243.507ZM8311.55 284.915L8387.84 453.904L8311.49 622.935L8235.19 453.967L8311.55 284.915ZM8020.28 319.492L8096.57 488.481L8020.28 657.47L7943.98 488.481L8020.28 319.492ZM7729.01 340.196L7805.3 509.164L7729.01 678.154L7652.71 509.164L7729.01 340.196ZM7437.74 367.857L7514.04 536.846L7437.74 705.815L7361.44 536.846L7437.74 367.857ZM7146.47 388.561L7222.77 557.551L7146.47 726.54L7070.17 557.551L7146.47 388.561ZM6578.96 165.927V974.351L6657.95 1019.9L6732.28 974.351V165.927L6653.29 120.378L6578.96 165.927ZM5820.15 463.925L5754.23 365.724C4307.9 429.701 2347.71 412.206 0 112.675C11.1936 148.89 24.5159 184.411 39.8973 219.055C1485.12 401.468 2940.32 493.436 4397.01 494.423C4937.54 494.402 5379.97 484.216 5820.15 463.925ZM6016.53 457.196C6152.08 450.737 6223.57 445.064 6348.5 437.444V335.993C6203.57 344.937 6110.03 351.728 5950.67 359.058L6016.53 457.196ZM3744.24 674.427C2532.01 649.119 1321.88 561.284 118.698 411.274C186.712 533.678 297.543 671.011 457.712 688.382C1593.76 811.511 2613.22 887.951 3734.59 910.602C3962.34 915.198 4189.26 917.496 4415.35 917.496C5070.96 917.496 5718.03 898.138 6348.56 859.731V623.556C5720.15 661.942 5075.08 681.28 4421.48 681.28C4196.62 681.28 3970.87 678.996 3744.24 674.427ZM9573.23 19.5679V511.131C9891.85 458.936 9969.68 378.168 9965.21 227.771C9958.17 -9.70815 9834.46 -24.429 9573.23 19.5679Z" fill="#4CA30D"/>
</svg>
