<svg width="10405" height="1024" viewBox="0 0 10405 1024" fill="none" xmlns="http://www.w3.org/2000/svg">
<path d="M0 568.662C108.861 663.211 375.811 856.212 743.188 856.212H7515.64V855.461C7802.82 858.637 7938.51 881.212 8019.15 881.212V752.458C8019.57 689.755 8008.67 627.49 7986.96 568.662H0ZM7515.64 167.38H743.188C375.811 167.38 108.861 360.51 0 455.059H7986.47C8008.48 395.949 8019.55 333.328 8019.15 270.254V142.487C8019.15 142.487 7802.82 164.976 7515.64 168.238V167.38ZM10160.1 511.818C10160.4 492.38 10168.4 473.85 10182.3 460.262C10196.2 446.673 10214.9 439.127 10234.4 439.265H10404.7C10370 359.598 10315 290.455 10245.1 238.774C10245.1 238.774 10143 360.532 10007.9 360.532H8570.34C8370.77 360.532 8390.58 237.551 8390.58 237.551V73.0677L8117.56 0C8117.56 0 8117.84 244.975 8117.84 347.807C8118.82 405.973 8102.04 463.055 8069.73 511.431H8068.78L8068.63 511.624L8068.78 511.818L8068.63 512.011L8068.78 512.204H8069.73C8102.04 560.58 8118.82 617.662 8117.84 675.828C8117.84 778.66 8117.56 1023.64 8117.56 1023.64L8390.65 950.632V786.063C8390.65 786.063 8370.92 663.082 8570.34 663.082H10007.8C10142.9 663.082 10245 784.84 10245 784.84C10314.9 733.158 10369.9 664.015 10404.6 584.349H10234.3C10214.9 584.47 10196.2 576.919 10182.3 563.337C10168.4 549.755 10160.4 531.24 10160.1 511.818Z" fill="#4CA30D"/>
</svg>
