<svg width="6260" height="1024" viewBox="0 0 6260 1024" fill="none" xmlns="http://www.w3.org/2000/svg">
<path d="M94.9084 146.186H36.2942C36.2942 146.186 11.5367 173.134 10.5905 277.66C9.64424 382.186 10.5905 277.75 10.5905 277.789V277.919C11.5367 382.445 36.2942 409.393 36.2942 409.393H94.9084L149.984 350.727C143.991 326.862 140.747 302.391 140.314 277.789C140.747 253.188 143.991 228.716 149.984 204.852L94.9084 146.186ZM3594.91 544.003H3755.97V162.168H3594.91V544.003ZM2574.89 162.168H2474.45C2470.59 174.289 2463.05 184.908 2452.89 192.556C2442.72 200.203 2430.43 204.501 2417.72 204.852H191.838C185.841 228.716 182.593 253.187 182.156 277.789C182.593 302.391 185.841 326.863 191.838 350.727H315.95V276.182H2574.89V162.116V162.168ZM365.426 317.57V415.809H557.16C557.16 415.809 600.052 479.595 725.874 479.595H1415.73C1415.73 479.595 1432.72 440.709 1496.34 440.709H2593.2C2624.71 439.679 2655.99 446.481 2684.23 460.507C2712.48 474.532 2736.8 495.342 2755.03 521.074H3544.71V317.57L365.426 317.401V317.57ZM2775.69 146.471H2775.42C2766.03 141.396 2757.9 134.285 2751.62 125.659C2745.34 117.033 2741.07 107.11 2739.12 96.6192H2660.69C2658.74 107.11 2654.47 117.031 2648.19 125.657C2641.91 134.283 2633.78 141.395 2624.4 146.471H2624.12V276.351H2775.78V146.471H2775.69ZM3497.3 106.146H3342.52V162.194H2823.79V276.351H3544.71V162.168H3497.3V106.12V106.146ZM3805.79 286.85V417.014L4425.85 414.513C4425.85 414.513 4618.43 426.179 4734.48 513.633C4859.63 607.919 4915.41 687.532 4915.41 687.532C4922.99 680.031 4928.9 671.021 4932.77 661.087C4936.65 651.152 4938.39 640.515 4937.88 629.864C4835.48 511.508 4716.87 383.922 4621.31 290.479L4620.02 291.296C4610.34 297.497 4600.3 303.124 4589.96 308.146C4583.13 334.118 4567.64 356.98 4546.05 372.955C4524.46 388.93 4498.07 397.061 4471.24 396.003C4468.85 396.003 4466.42 396.003 4463.98 395.848C4448.42 395.764 4433.05 392.417 4418.86 386.022C4404.67 379.628 4391.99 370.328 4381.62 358.724C4366.97 341.185 4357.54 319.883 4354.4 297.245C4320.35 282.793 4264.2 253.46 4231.26 206.783H4056.65V207.911C4056.65 253.641 4030.72 286.824 3995.12 286.824H3805.87L3805.79 286.85ZM6258.21 245.475C6251.24 119.743 6134.81 96.7229 6134.81 96.7229C6134.81 96.7229 6028.13 375.406 5686.49 417.274C5507.99 439.167 5298.15 394.227 5298.15 394.227L5147.61 440.294C5147.61 440.294 4992.83 272.682 4963.55 251.736C4939.02 231.449 4909.32 218.393 4877.79 214.029C4836.48 209.311 4735.56 230.271 4666.51 275.093C4757.58 370.792 4867.68 494.877 4975.38 622.229C4976.58 678.135 4950.39 715.971 4909.15 744.072C4821.29 627.79 4699.98 471.701 4422.84 460.528H3805.85V512.558H4422.84C4422.84 512.558 4745.99 499.984 4897.64 810.062C4901.42 820.513 4909.04 829.137 4918.94 834.19C4928.84 839.243 4940.29 840.348 4950.98 837.282L5123.54 794.326L5085.53 637.188C5072.54 639.421 5059.18 638.066 5046.9 633.269C5034.61 628.473 5023.87 620.416 5015.82 609.967C4994.64 583.771 4855.29 425.155 4741.81 296.221C4741.81 296.221 4822.69 254.665 4881.43 266.409C4951.3 280.33 5100.36 459.063 5127.38 509.447C5137.89 526.802 5142.8 546.979 5141.43 567.226C5140.06 587.473 5132.47 606.804 5119.7 622.579L5160.14 787.041C5160.14 787.041 5279.39 779.705 5340.02 825.798C5400.64 871.891 5554.03 1010.66 5636.34 1019.26C5769.02 1033.11 6029.22 813.238 6175.98 872.591C6195.08 846.438 6205.33 814.875 6205.26 782.492C6205.26 728.051 6146.7 681.232 6146.7 563.9C6146.7 446.568 6263.38 337.7 6258.26 245.449L6258.21 245.475ZM4506.34 183.374C4556.33 180.25 4586.26 153.263 4624.29 149.582L4577.98 93.5472H4330.91C4336.22 112.747 4345.97 130.433 4359.35 145.188C4374.75 159.55 4453.9 186.653 4506.34 183.374ZM4103.22 162.22C4103.22 162.22 4096.88 71.5506 4151.67 56.411C4156.88 54.9362 4162.27 54.1732 4167.68 54.1426C4209.04 54.1426 4235.83 101.61 4249.98 151.215C4256.97 172.753 4269.75 191.954 4286.92 206.719C4318.71 233.58 4355.25 254.244 4394.66 267.64C4394.66 267.64 4386.63 350.403 4465.77 353.889C4467.61 353.967 4469.42 354.006 4471.19 354.006C4481.58 354.436 4491.95 352.798 4501.7 349.187C4511.45 345.576 4520.39 340.064 4527.99 332.971C4535.6 325.878 4541.72 317.345 4546 307.868C4550.28 298.391 4552.63 288.158 4552.92 277.763C4565.96 273.429 4578.44 267.596 4590.13 260.381C4603.44 251.116 4617.93 243.667 4633.21 238.229C4636.38 237.268 4639.6 236.472 4642.86 235.844C4654 233.836 4665.3 232.86 4676.62 232.928C4703.15 232.928 4724.44 187.651 4724.44 187.651C4709.61 184.574 4694.49 183.062 4679.34 183.141H4673.98C4665.6 183.141 4656.26 183.439 4645.99 184.204C4627.48 185.314 4609.36 190.025 4592.65 198.073C4577.25 206.673 4560.82 213.293 4543.76 217.775C4535.19 219.58 4526.47 220.613 4517.71 220.86C4513.82 220.99 4510.06 221.042 4506.29 221.055C4426.64 221.314 4362.32 195.947 4344.11 184.191C4329.39 173.525 4317.12 159.849 4308.1 144.073C4280.98 92.3417 4260.14 12.2104 4171.62 12.2104C4160.48 12.2824 4149.36 13.3933 4138.43 15.5287C4052.95 31.6535 4056.6 162.194 4056.6 162.194H4103.26L4103.22 162.22ZM4471.34 249.519C4478.11 249.506 4484.74 251.502 4490.37 255.255C4496.01 259.007 4500.4 264.347 4503 270.599C4505.6 276.85 4506.29 283.733 4504.98 290.375C4503.66 297.017 4500.41 303.121 4495.63 307.913C4490.84 312.705 4484.75 315.971 4478.11 317.296C4471.47 318.622 4464.58 317.948 4458.33 315.36C4452.07 312.772 4446.72 308.386 4442.96 302.757C4439.2 297.128 4437.19 290.51 4437.19 283.739C4437.18 279.245 4438.07 274.795 4439.78 270.643C4441.5 266.49 4444.02 262.717 4447.2 259.539C4450.37 256.361 4454.15 253.84 4458.3 252.121C4462.45 250.402 4466.9 249.517 4471.39 249.519H4471.34ZM4018.12 128.817L4026.49 93.5472H3577.83L3594.91 128.817H4018.12ZM4023.14 206.732C4022.83 184.437 4013.5 162.518 3995.12 162.518H3805.87V253.252H3995.12C4014.15 253.304 4023.41 229.817 4023.14 206.732Z" fill="#4CA30D"/>
</svg>
