<svg width="13769" height="1024" viewBox="0 0 13769 1024" fill="none" xmlns="http://www.w3.org/2000/svg">
<g clip-path="url(#clip0_124_95)">
<path d="M7955.94 512.447H5823.32V358.898H7955.94V512.447ZM4452.37 896.319V51.8001L185.627 47.6888L187.057 896.766H4452.29L4452.37 896.319ZM948.813 973.094V51.8001H644.039V973.094H948.724H948.813ZM1253.5 973.094V-24.9744H1101.56V973.094H1253.5ZM5290.28 973.094V-24.9744L4599.4 47.51L4604.76 896.587L5290.28 973.094ZM5138.34 973.094V-24.9744H4985.86V973.094H5137.8H5138.34ZM5595.32 742.77C5664.21 671.362 5708.43 579.783 5721.52 481.433C5722.96 428.834 5712.33 376.604 5690.46 328.748C5668.58 280.892 5636.04 238.68 5595.32 205.349H5366.34V742.77H5594.88H5595.32ZM5518.64 589.221C5540.78 580.715 5560.03 566.043 5574.09 546.94C5588.16 527.838 5596.45 505.105 5598 481.433C5599.01 455.32 5591.93 429.534 5577.72 407.6C5563.51 385.667 5542.88 368.657 5518.64 358.898H5442.49V589.221H5518.64ZM4907.3 470.797C4907.3 446.809 4897.77 423.803 4880.81 406.84C4863.85 389.878 4840.84 380.348 4816.85 380.348C4792.86 380.348 4769.86 389.878 4752.89 406.84C4735.93 423.803 4726.4 446.809 4726.4 470.797C4726.4 494.786 4735.93 517.792 4752.89 534.755C4769.86 551.717 4792.86 561.246 4816.85 561.246C4840.84 561.246 4863.85 551.717 4880.81 534.755C4897.77 517.792 4907.3 494.786 4907.3 470.797ZM9326.88 896.319V51.8001L13593.6 47.6888L13592.1 896.766H9326.88V896.319ZM12830.4 973.094V51.8001H13135.1V973.094H12830.4ZM12525.8 973.094V51.8001H12677.8V973.094H12525.8ZM8489.07 973.094V-24.9744L9179.95 47.51L9174.58 896.587L8489.07 973.094ZM8641.01 1049.87V-24.9744H8792.95V1049.87H8641.36H8641.01ZM8184.38 742.77C8115.5 671.362 8071.27 579.783 8058.18 481.433C8056.75 428.834 8067.37 376.604 8089.25 328.748C8111.12 280.892 8143.67 238.68 8184.38 205.349H8412.83V742.77H8184.38ZM8260.53 589.221C8238.39 580.715 8219.14 566.043 8205.08 546.94C8191.01 527.838 8182.71 505.105 8181.16 481.433C8180.16 455.32 8187.24 429.534 8201.45 407.6C8215.65 385.667 8236.29 368.657 8260.53 358.898H8336.68V589.221H8260.53ZM9074.93 473.032C9074.93 461.154 9072.59 449.392 9068.05 438.418C9063.5 427.444 9056.84 417.473 9048.44 409.074C9040.04 400.675 9030.07 394.012 9019.09 389.467C9008.12 384.921 8996.36 382.582 8984.48 382.582C8972.6 382.582 8960.84 384.921 8949.87 389.467C8938.89 394.012 8928.92 400.675 8920.52 409.074C8912.12 417.473 8905.46 427.444 8900.92 438.418C8896.37 449.392 8894.03 461.154 8894.03 473.032C8894.01 497.02 8903.52 520.036 8920.46 537.015C8937.41 553.994 8960.4 563.547 8984.39 563.57C9008.38 563.594 9031.4 554.087 9048.38 537.142C9065.35 520.196 9074.91 497.199 9074.93 473.211V473.032Z" fill="#4CA30D"/>
</g>
<defs>
<clipPath id="clip0_124_95">
<rect width="13769" height="1024" fill="white"/>
</clipPath>
</defs>
</svg>
