<svg width="2115" height="1024" viewBox="0 0 2115 1024" fill="none" xmlns="http://www.w3.org/2000/svg">
<g clip-path="url(#clip0_125_125)">
<path d="M2076.64 807.047C2076.64 807.047 2048.58 839.255 2022.7 840.407C1969.01 842.798 1762.66 646.601 1810.18 616.212C1810.18 616.212 1863.73 583.795 1874.44 539.233C1883.36 502.08 1858.63 456.467 1858.63 456.467L1828.92 469.003C1828.92 469.003 1844.58 515.52 1819.89 536.195C1788.43 562.528 1741.07 546.973 1741.07 546.973L1662.25 597.619C1662.25 597.619 1623.1 582.428 1623.1 542.924C1623.93 518.169 1634.52 494.746 1652.55 477.761H1711.77V435.859H1646.69L1571.92 378.8C1513.68 393.991 1474.19 448.693 1474.19 527.309L1067.91 527.194V127.538C1067.91 84.5647 1124.5 42.4541 1163.3 42.4541H1208.48C1231.91 42.4541 1242.62 0.922852 1242.62 0.922852H1115.09C1073.59 0.922852 1030.08 53.5965 1030.08 53.5965C1011.76 53.5965 993.934 49.797 993.934 30.3013H922.074C878.145 30.3013 866.093 111.336 866.093 111.336H938.296C952.686 111.336 959.968 84.9016 959.968 84.9016H907.261C907.261 84.9016 912.906 64.813 923.071 64.813H962.481C964.986 64.9029 967.447 65.5019 969.714 66.5736C971.981 67.6454 974.005 69.1673 975.665 71.0468C977.324 72.9262 978.584 75.1239 979.367 77.5058C980.15 79.8877 980.439 82.4041 980.218 84.9016V527.188L632.831 527.093V150.227L543.14 154.269V527.066H445.418V695.051C673.493 746.66 1203.43 789.081 1401.22 655.372C1343.96 746.532 1165.28 769.834 1108.05 774.9L1175.32 830.605C1175.32 830.605 1367.8 833.347 1411.93 844.449C1443.59 852.425 1455 866.619 1455 866.619C1513.22 860.556 1568.9 816.061 1600.51 782.492C1600.51 782.492 1593.31 787.747 1581.81 794.948C1553.24 812.841 1498.14 842.778 1460.79 834.324C1408.4 822.46 1366.08 772.872 1366.08 772.872C1379.11 733.254 1422.3 694.876 1470.88 673.682C1481.58 686.212 1498.26 708.524 1498.77 726.423C1498.48 745.803 1495.43 765.044 1489.72 783.563C1489.72 783.563 1509.33 780.242 1509.33 782.216C1516.11 763.025 1519.35 742.763 1518.89 722.415C1517.49 700.35 1511.95 678.746 1502.57 658.727C1525.12 652.018 1549.04 651.296 1571.96 656.632C1626.77 681.012 1614.4 736.387 1630.61 744.491C1646.83 752.595 1711.45 722.765 1743.56 771.835C1801.07 859.701 1845.29 891.113 1921.27 947.074C1958.42 974.425 1946.71 1024.05 1946.71 1024.05C2024.33 1008.26 2093.03 914.732 2109.02 827.547L2076.64 807.047ZM948.085 165.35L662.957 179.565V491.248H948.085V165.35ZM1465.46 277.852C1408.97 286.192 1366.23 238.854 1330.25 240.713C1294.27 242.572 1294.45 267.727 1230.55 277.852C1132.2 282.567 1110.74 157.65 1110.74 157.65L1098.02 158.465V491.255H1438.71C1438.71 491.255 1449.76 425.411 1485.57 389.289C1509.77 366.394 1539.17 349.711 1571.24 340.671C1561.47 306.4 1544.85 274.468 1522.37 246.81C1522.37 246.81 1506.64 271.782 1465.48 277.859L1465.46 277.852ZM1215.33 107.732C1170 109.753 1132.65 113.424 1132.65 113.424C1132.65 113.424 1147.72 240.544 1232.05 241.056C1278.95 241.339 1287.77 207.629 1326.43 206.619C1365.08 205.608 1410.93 253.89 1467.99 239.541C1525.05 225.192 1541.28 154.457 1541.28 154.457L1513.67 134.732C1507.61 141.849 1499.77 147.237 1490.96 150.35C1482.14 153.462 1472.66 154.189 1463.47 152.456C1449.73 149.855 1436.48 145.144 1424.18 138.491L1426.69 90.6614L1394.87 125.907C1379.46 120.37 1363.69 115.869 1347.67 112.434C1344.65 111.76 1341.4 111.154 1337.99 110.615L1327.34 65.0757L1306.83 107.456C1287.97 106.364 1266.95 106.263 1246.2 106.708L1228.4 63.6341L1215.33 107.732ZM335.874 181.296L260.424 185.001C260.424 185.001 228.708 279.529 228.708 419.28C228.708 559.032 256.126 656.571 256.126 656.571H330.518C313.88 578.859 305.616 499.588 305.869 420.116C305.525 339.548 315.61 259.275 335.874 181.296ZM243.286 414.605C243.32 410.177 244.665 405.858 247.151 402.193C249.636 398.528 253.151 395.681 257.252 394.011C261.353 392.34 265.857 391.922 270.196 392.807C274.535 393.693 278.514 395.843 281.633 398.987C284.752 402.131 286.87 406.128 287.72 410.473C288.571 414.819 288.115 419.32 286.412 423.407C284.708 427.495 281.833 430.986 278.148 433.442C274.463 435.898 270.134 437.208 265.705 437.207C259.736 437.18 254.021 434.784 249.818 430.546C245.614 426.308 243.264 420.575 243.286 414.605ZM277.757 593.22C273.275 593.26 268.882 591.968 265.135 589.507C261.389 587.046 258.458 583.527 256.715 579.398C254.971 575.268 254.494 570.714 255.343 566.313C256.193 561.912 258.33 557.862 261.485 554.678C264.64 551.494 268.67 549.318 273.063 548.428C277.456 547.538 282.014 547.973 286.16 549.678C290.305 551.383 293.851 554.281 296.346 558.005C298.842 561.728 300.175 566.109 300.177 570.592C300.191 573.55 299.622 576.482 298.503 579.22C297.384 581.958 295.736 584.449 293.654 586.55C291.572 588.651 289.097 590.322 286.369 591.466C283.642 592.611 280.715 593.207 277.757 593.22ZM277.757 289.345C273.275 289.385 268.881 288.092 265.135 285.631C261.388 283.17 258.457 279.651 256.714 275.521C254.971 271.391 254.494 266.836 255.344 262.435C256.194 258.034 258.332 253.984 261.488 250.8C264.643 247.616 268.673 245.441 273.067 244.552C277.46 243.663 282.019 244.099 286.165 245.805C290.31 247.511 293.855 250.41 296.35 254.134C298.844 257.859 300.176 262.24 300.177 266.723C300.202 272.695 297.854 278.432 293.65 282.673C289.445 286.914 283.729 289.311 277.757 289.338V289.345ZM235.256 203.581L194.769 206.275C194.769 206.275 165.316 289.304 165.316 418.964C165.316 548.624 190.747 639.103 190.747 639.103H229.644C214.21 567.008 206.545 493.467 206.78 419.739C206.409 346.727 215.989 274.005 235.256 203.581ZM513.034 188.443L358.091 198.757C339.278 270.894 329.921 345.17 330.256 419.718C330.023 493.454 337.693 567.002 353.133 639.103H413.965V493.242H512.993V188.443H513.034ZM150.644 341.243L24.2783 343.264C11.6662 368.379 4.85192 396.005 4.33789 424.104C5.40027 448.549 10.5368 472.645 19.5357 495.398L149.552 497.419C144.224 463.392 143.725 376.793 150.644 341.243ZM152.247 325.803C154 293.429 159.962 261.421 169.985 230.588L67.3051 236.455C53.1582 264.52 41.2883 290.395 43.3227 327.642L152.247 325.803ZM43.3227 510.157C42.4718 544.785 50.7425 579.027 67.3051 609.449L169.991 615.336C160.065 581.695 154.11 547.008 152.247 511.983L43.3227 510.157Z" fill="#4CA30D"/>
</g>
<defs>
<clipPath id="clip0_125_125">
<rect width="2115" height="1024" fill="white"/>
</clipPath>
</defs>
</svg>
