<svg width="9957" height="1022" viewBox="0 0 9957 1022" fill="none" xmlns="http://www.w3.org/2000/svg">
<path d="M3957.14 191.472H4148.62V1021.2H3957.14V191.472ZM8744.01 765.899V446.774H8999.33V765.899H8744.01ZM9382.25 702.07L9254.59 765.899H9063.13V446.774H9254.59L9382.25 510.598V702.07ZM6127.19 446.774H8680.21V765.899H6127.19L5935.73 829.723V382.944L6127.19 446.774ZM5808.07 446.774V765.899H4531.57V446.774H5808.07ZM4212.45 829.723V382.944L4467.75 446.774V765.899L4212.45 829.723ZM9384.19 638.246H9513.18C9527.89 711.071 9592.31 765.899 9669.5 765.899C9757.62 765.899 9829.03 694.479 9829.03 606.334C9829.03 518.194 9757.62 446.774 9669.5 446.774C9592.31 446.774 9527.89 501.597 9513.18 574.422H9384.19C9400.08 430.815 9521.66 319.12 9669.5 319.12C9828.16 319.12 9956.69 447.729 9956.69 606.334C9956.69 764.939 9828.16 893.547 9669.5 893.547C9521.66 893.547 9400.08 781.853 9384.19 638.246ZM1276.5 0C1276.5 0 1382.89 430.498 3829.5 382.95V829.723C3829.5 829.723 1053.94 865.206 382.95 255.296C382.95 255.296 924.504 341.015 1276.5 0ZM3127.42 893.547C3127.42 893.547 260.854 1062.3 0 255.296C0 255.296 334.19 784.79 3127.42 893.547Z" fill="#4CA30D"/>
</svg>
