<svg width="5847" height="1024" viewBox="0 0 5847 1024" fill="none" xmlns="http://www.w3.org/2000/svg">
<path d="M2497.46 12.0457H1958.72L1911.09 108.436C2037.22 109.353 2255.27 147.928 2362.46 195.652C2432.62 169.769 2497.46 89.5329 2497.46 12.0457ZM5686.74 171.83C5639.2 264.057 5437.33 391.168 5166.96 356.325C5181.72 378.001 5202.17 395.193 5226.05 406.016C5249.94 416.839 5276.35 420.876 5302.38 417.684C5729.17 362.254 5659.43 590.687 5605 645.767C5574.01 677.147 5512.95 726.811 5370.45 726.811C5197.58 726.811 5074.53 686.727 4959.91 637.642C4941.49 628.852 4921.21 624.651 4900.82 625.397C4880.42 626.143 4860.51 631.814 4842.78 641.927C4995.91 728.388 5087.66 771.072 5187.37 786.23C5418.7 821.396 5553.42 811.345 5653.41 729.29C5730.48 666.045 5833.11 549.78 5836.65 401.974C5840.91 232.502 5686.74 171.83 5686.74 171.83ZM1747.64 784.654C1319.28 784.654 1058.53 408.253 1044.05 314.099C904.65 306.621 856.765 441.654 699.958 444.632C259.773 452.837 10.5098 320.324 10.5098 320.324C10.5098 320.324 393.162 699.136 836.325 710.373C836.325 710.373 686.309 625.772 837.834 601.816C1091.99 561.624 1195.45 744.058 1081.8 771.005C1081.8 771.005 1314.64 954.355 1620.04 954.355C1646.24 892.982 1694.53 874.496 1906.82 874.496H2193.81C2397.47 874.496 2459.24 1021.79 2459.24 1021.79H3347.29C3347.29 1021.79 3384.41 874.442 3603.83 874.442H3937.01L3981.68 784.6C3981.68 784.6 2113.62 779.776 1747.64 784.654ZM4788.01 611.706C4788.01 611.706 4885.54 556.827 4980.44 598.906C5085.2 645.363 5221.32 685.137 5361.14 682.442C5570.86 678.252 5606.66 557.218 5569.82 507.716C5511.2 428.908 5349.17 466.217 5305.98 467.968C5228.37 471.108 5131.56 447.636 5083.34 347.783C5067.95 346.26 4774.89 291.598 4695.01 276.372C4524.19 239.077 4279.67 234.9 4139.18 245.194C4139.18 168.313 4361.16 143.428 4361.16 143.428V106.671H4133.73C3993.96 106.671 3978.48 220.753 3978.48 220.753C3978.48 220.753 3887.51 537.977 3757.14 537.977C3626.77 537.977 2975.83 532.965 2894.62 532.965C2813.41 532.965 2762.36 453.241 2762.36 453.241H1846.97C1724.55 453.241 1609.84 491.399 1540.7 514.964C1472.09 469.828 1417.38 406.513 1382.67 332.086C1596.77 260.271 2014.59 251.769 2315.7 254.06L2331.06 242.311C2197.67 190.747 1992.43 153.87 1834.04 148.534L1859.37 93.9118H1070.96C1124.76 544.256 1524.84 708.541 1743.51 708.541H3885.81C3898.04 689.26 4006.74 644.945 4073.94 589.016L4124.54 691.766L4191.74 701.602C4191.74 701.602 4207.91 584.785 4300.02 579.867C4392.13 574.949 4536.47 716.369 4536.47 716.369V664.711C4536.47 664.711 4382.56 536.415 4304.16 540.106C4225.75 543.798 4176.4 617.984 4176.4 617.984L4128.19 533.1C4183.23 485.645 4253.17 458.997 4325.83 457.796C4351.03 457.351 4782.94 609.402 4788.01 611.706ZM1496.71 372.036C1511.4 398.518 1530.48 422.318 1553.13 442.422C1640.95 413.002 1732.7 396.959 1825.29 394.833H2800.32C2800.32 394.833 2835.81 468.238 2909.31 468.238H3709.44C3852.26 468.238 3911.55 172.706 3911.55 172.706C3925.52 130.425 3968.71 62.4777 4055.71 62.4777L4072.7 12.0322H3832.35C3832.35 12.0322 3784.03 312.495 3641.14 312.495H3507.9L3473.87 348.43H2963.11L2925.66 319.973H1969.52C1810.46 319.594 1651.87 337.057 1496.71 372.036Z" fill="#4CA30D"/>
</svg>
