<svg width="8003" height="1024" viewBox="0 0 8003 1024" fill="none" xmlns="http://www.w3.org/2000/svg">
<path d="M1437.21 451.918L1562.17 388.444L1374.74 261.53C1374.74 261.53 1176.79 356.707 1093.58 356.707C1010.38 356.707 843.653 261.53 843.653 261.53C843.653 261.53 495.34 346.156 0.181641 515.392H437.546C437.546 515.392 737.643 371.932 812.378 356.707C812.378 356.707 926.182 420.181 968.586 420.181H1374.74L1437.21 451.918ZM1437.21 515.392L1468.45 483.655C1468.45 483.655 1568.38 469.933 1624.64 420.181C1680.9 370.429 1687.12 324.971 1687.12 324.971V261.53C1687.12 261.53 1765.82 287.95 1780.83 325.004C1795.84 362.057 1878.9 425.003 1905.81 451.918C1922.39 469.439 1933.28 491.566 1937.06 515.392H1437.21ZM1405.97 515.392L1374.73 483.655L1312.26 451.918H906.136C831.318 451.918 812.411 420.181 812.411 420.181C812.411 420.181 716.639 433.655 562.496 515.392H1405.98H1405.97ZM1999.54 39.3387C1995.39 18.1202 2123.38 97.3964 2093.25 198.023C2068.48 280.354 1968.3 324.971 1968.3 324.971H1843.33C1843.33 324.971 1791.6 232.914 1718.38 198.023C1674.65 176.459 1626.55 165.243 1577.79 165.243C1529.04 165.243 1480.94 176.459 1437.21 198.023C1437.21 198.023 1513.4 36.4655 1687.14 7.60182C1862.17 -21.46 1874.49 40.1808 1874.57 71.0756C1867.78 72.2596 1861.36 75.0319 1855.84 79.1667C1850.32 83.3015 1845.86 88.6818 1842.81 94.8691C1839.77 101.056 1838.23 107.876 1838.32 114.771C1838.41 121.667 1840.13 128.444 1843.33 134.549C1863.44 187.439 2033.17 212.158 1999.54 39.3387ZM1937.06 420.181C1926.93 416.614 1968.3 388.444 1968.3 388.444C1968.3 388.444 2085.04 409.299 2124.49 451.918C2163.94 494.537 2155.73 497.261 2155.73 515.392H1999.54C1999.54 515.392 1981.18 435.785 1937.06 420.181ZM2186.97 420.181L2155.73 451.918C2155.73 451.918 2186.97 466.119 2186.97 515.392H2343.18V420.181H2186.97ZM2530.61 324.971H2468.13L2405.65 420.181H2374.4V515.392H2530.61V324.971ZM2562.38 452.116H5498.42V515.095H2562.38V452.149V452.116ZM5529.37 452.116H7216.94V515.095H5529.37V452.149V452.116ZM5529.63 420.148H5560.87L5592.11 451.885V515.359H5529.63V420.181V420.148ZM7247.83 420.148L7277.85 388.411H7309.74L7341.54 420.148V515.359H7247.83V420.181V420.148ZM7372.78 451.885V420.181C7372.78 420.181 7448.62 329.148 7466.5 324.971C7476.76 322.42 7487.49 322.42 7497.75 324.971C7497.75 324.971 7689.42 418.348 7716.42 420.181C7743.42 422.014 7833.48 446.386 7872.63 451.918C7911.78 457.45 7997.58 515.392 7997.58 515.392H7747.66C7747.66 515.392 7703.33 493.001 7685.18 483.655C7667.03 474.309 7497.75 388.444 7497.75 388.444L7403.96 451.918H7372.71L7372.78 451.885ZM7372.78 515.359V483.655C7372.78 483.655 7442.05 472.658 7466.5 451.918H7528.99L7653.94 515.392H7372.78V515.359ZM1437.21 515.359L1468.45 546.732C1468.45 546.732 1568.38 560.273 1624.64 609.347C1680.9 658.422 1687.12 703.27 1687.12 703.27V765.885C1687.12 765.885 1765.82 739.895 1780.83 703.27C1795.84 666.646 1878.9 604.625 1905.8 578.04C1922.34 560.835 1933.24 538.99 1937.04 515.425H1437.21V515.359ZM1999.54 984.989C1995.39 1005.91 2123.38 927.723 2093.25 828.451C2068.48 747.226 1968.3 703.221 1968.3 703.221H1843.33C1843.33 703.221 1791.6 794.039 1718.38 828.451C1674.57 849.732 1626.5 860.789 1577.79 860.789C1529.09 860.789 1481.02 849.732 1437.21 828.451C1437.21 828.451 1513.4 987.829 1687.14 1016.31C1862.17 1044.99 1874.49 984.179 1874.57 953.698C1867.84 952.583 1861.46 949.888 1855.96 945.832C1850.47 941.776 1846.02 936.476 1842.97 930.365C1839.92 924.255 1838.36 917.509 1838.43 910.68C1838.49 903.852 1840.17 897.135 1843.33 891.082C1863.44 838.92 2033.17 814.547 1999.54 985.038V984.989ZM1937.06 609.281C1926.93 612.815 1968.3 640.655 1968.3 640.655C1968.3 640.655 2085.04 620.081 2124.49 578.04C2163.94 535.999 2155.73 533.308 2155.73 515.425H1999.54C1999.54 515.425 1981.18 593.941 1937.06 609.331V609.281ZM2186.97 609.281L2155.73 577.908C2155.73 577.908 2186.97 563.905 2186.97 515.293H2343.18V609.215H2186.97V609.281ZM2530.61 703.204H2468.13L2405.65 609.331H2374.4V515.392H2530.61V703.254V703.204ZM2562.38 515.078H5498.42V578.056H2562.38V515.128V515.078ZM5529.37 515.078H7216.94V578.056H5529.37V515.128V515.078ZM5529.63 515.342H5592.11V578.816L5560.38 610.553H5529.63V515.392V515.342ZM7247.83 609.265L7277.85 640.639H7309.74L7341.54 609.265V515.392H7247.83V609.314V609.265ZM7372.78 577.891V609.265C7372.78 609.265 7448.62 699.076 7466.5 703.188C7476.77 705.704 7487.48 705.704 7497.75 703.188C7497.75 703.188 7689.42 611.065 7716.42 609.265C7743.42 607.465 7833.48 583.407 7872.63 577.891C7911.78 572.376 7997.58 515.276 7997.58 515.276H7747.66C7747.66 515.276 7703.33 537.37 7685.18 546.65C7667.03 555.93 7497.75 640.573 7497.75 640.573L7403.96 578.023H7372.71L7372.78 577.891ZM7372.78 515.276V546.65C7372.78 546.65 7442.05 557.498 7466.5 578.023H7528.99L7653.94 515.408H7372.78V515.276ZM1437.21 578.866L1562.17 642.339L1374.74 769.287C1374.74 769.287 1176.79 674.076 1093.58 674.076C1010.38 674.076 843.653 769.287 843.653 769.287C843.653 769.287 495.34 684.644 0.181641 515.392H437.546C437.546 515.392 737.643 658.852 812.378 674.076C812.378 674.076 926.182 610.602 968.586 610.602H1374.74L1437.21 578.866ZM1405.98 515.392L1374.74 547.195L1312.26 578.932H906.136C831.318 578.932 812.411 610.669 812.411 610.669C812.411 610.669 716.639 597.194 562.496 515.458H1405.98V515.392Z" fill="#4CA30D"/>
</svg>
