<svg width="2744" height="1024" viewBox="0 0 2744 1024" fill="none" xmlns="http://www.w3.org/2000/svg">
<path d="M2683.96 454.656C2698.61 454.656 2712.66 460.698 2723.02 471.45C2733.38 482.202 2739.2 496.794 2739.2 512C2739.2 527.206 2733.38 541.793 2723.02 552.55C2712.66 563.302 2698.61 569.344 2683.96 569.344H2628.73V454.656H2683.96ZM60.3537 454.656C45.7054 454.656 31.6561 460.698 21.2983 471.45C10.9406 482.202 5.11914 496.794 5.11914 512C5.11914 527.206 10.9406 541.793 21.2983 552.55C31.6561 563.302 45.7054 569.344 60.3537 569.344H115.588V454.656H60.3537ZM2601.11 569.344V454.656H2573.5V569.344H2601.11ZM2021.16 440.32V583.68H1993.54V569.344H750.775V583.68H723.158V440.32H750.775V454.656H1993.54V440.32H2021.16ZM170.823 454.656V569.344H143.206V454.656H170.823ZM2545.88 569.344V454.656H2048.78V569.344H2545.88ZM695.541 569.344V454.656H198.44V569.344H695.541Z" fill="#4CA30D"/>
</svg>
