<svg width="3914" height="1024" viewBox="0 0 3914 1024" fill="none" xmlns="http://www.w3.org/2000/svg">
<path d="M5.36413 404.28C47.3908 419.103 90.806 429.647 134.95 435.753C132.05 427.977 129.268 420.257 126.522 412.645C121.991 400.13 117.651 388.105 112.993 376.342C76.3521 382.382 40.3302 391.711 5.36413 404.217V404.28ZM1505.56 790.881C1514.22 734.62 1536.84 681.424 1571.34 636.148V566.371C1564.06 560.622 1557.23 554.324 1550.92 547.532C1534.75 530.221 1522.3 509.788 1514.32 487.487H891.36C899.178 495.042 906.446 503.146 913.108 511.737C927.227 531.581 936.591 554.406 940.477 578.448C944.363 602.49 942.667 627.104 935.519 650.385C925.369 685.962 899.416 712.006 876.525 735.032C850.019 761.665 833.934 779.318 833.798 799.581H1504.28L1505.56 790.881ZM562.085 211.759C563.085 233.916 572.458 254.868 588.31 270.381C599.547 281.473 637.027 302.207 667.149 318.872C702.515 337.415 736.688 358.15 769.467 380.955C785.166 391.979 799.141 405.273 810.935 420.402C816.209 427.579 827.401 442.35 828.017 451.375H1505.51C1504.3 442.613 1503.69 433.778 1503.69 424.933V211.768L562.085 211.759ZM2907.45 211.759H1687.01V404.163C1687.91 408.848 1696.51 425.404 1726.06 451.393H2907.44V211.75L2907.45 211.759ZM1807.22 508.647V696.936H2754.1C2754.1 696.936 2826.89 699.337 2835.07 648.726C2844.13 592.705 2802.76 576.539 2802.76 576.539C2803.48 543.755 2815.61 512.249 2837.07 487.451H1773.3C1779.54 491.647 1783.45 494.057 1783.53 494.111L1807.22 508.647ZM5.36413 554.645C67.6106 577.953 157.686 593.358 264.536 598.768C264.262 597.682 263.96 596.603 263.63 595.533C227.461 578.2 196.713 551.319 174.705 517.79C117.012 523.388 60.1763 535.739 5.36413 554.591V554.645ZM230.345 662.936C138.475 669.678 60.8595 684.177 5.36413 704.947C57.9959 724.72 129.159 738.322 214.858 745.463C223.862 732.393 230.409 717.791 234.178 702.373C236.707 685.246 237.549 672.813 230.345 662.936ZM888.387 636.493C893.311 620.792 894.624 604.182 892.226 587.903C889.828 571.625 883.783 556.098 874.541 542.484C850.022 511.707 816.802 489.027 779.209 477.401C793.926 423.474 599.058 350.054 554.092 306.067C500.953 254.079 512.806 137.669 512.806 137.669H497.881C274.114 137.669 5.17383 5.61816 5.17383 5.61816V183.622C99.4181 219.362 128.036 242.869 150.065 321.998C188.624 408.458 196.073 501.424 301.4 542.493C322.777 588.419 321.082 615.433 276.253 665.129C299.334 723.27 222.543 831.868 222.543 922.352C398.923 841.436 590.71 799.606 784.764 799.726C784.764 726.097 872.737 691.372 888.387 636.493ZM3762.84 798.783C3673.94 798.783 3656.36 734.144 3656.36 669.505H3592.93C3592.93 669.505 3589.5 730.655 3532.07 730.655H3251.66C3202.21 730.655 3173.51 792.784 3170.47 799.698L3170.19 800.351H3489.1C3560.86 800.351 3583.87 872.276 3583.87 872.276H3748.1C3780.92 872.276 3800.06 909.982 3800.06 909.982C3800.06 854.84 3791.86 798.783 3762.8 798.783H3762.84ZM3278.54 415.318C3309.65 391.846 3347.55 379.124 3386.52 379.07H3518.63C3524.48 379.07 3542.3 379.07 3556.56 342.587C3562.15 327.586 3565.84 311.944 3567.53 296.026H3567.04L3565.57 269.846C3564.8 263.194 3562.87 256.73 3559.85 250.753C3557.38 245.584 3553.4 241.292 3548.42 238.453C3543.45 235.614 3537.73 234.363 3532.02 234.867H3251.66C3181.98 234.867 3146.48 151.787 3145 148.244L3140.56 137.633C3140.56 137.633 3098.54 145.716 3098.54 179.318V451.375H3241.94C3252.31 437.63 3264.64 425.481 3278.54 415.318ZM3251.66 702.908H3532.02C3537.5 703.388 3543.01 702.243 3547.84 699.614C3552.68 696.985 3556.63 692.99 3559.21 688.128C3562.61 681.82 3564.76 674.916 3565.55 667.793L3566.5 641.749H3567.5C3565.8 625.859 3562.11 610.244 3556.53 595.27C3542.27 558.778 3524.45 558.778 3518.6 558.778H3386.52C3358.7 558.474 3331.31 551.904 3306.38 539.555C3281.45 527.206 3259.62 509.397 3242.52 487.451H3098.54V679.093C3098.54 764.882 3051.3 799.708 3051.3 799.708H3140.75L3145 789.531C3146.48 785.988 3181.98 702.908 3251.66 702.908ZM3082.08 137.669H642.492C642.492 137.669 645.002 100.651 708.825 100.651H843.766C906.131 100.651 1004.69 5.61816 1004.69 5.61816H904.853C904.853 5.61816 872.339 46.7141 823.413 46.7141H698.358C695.959 35.27 689.517 25.0734 680.212 17.9921C670.907 10.9107 659.363 7.41865 647.693 8.15551H559.122C547.756 10.3938 537.588 16.6786 530.504 25.844C523.42 35.0094 519.901 46.4333 520.599 57.9962C520.599 101.702 559.122 100.651 559.122 100.651C600.607 100.651 593.421 161.701 562.121 174.886L1552.76 175.004V424.933C1552.37 448.38 1558.48 471.479 1570.42 491.664C1582.35 511.849 1599.65 528.33 1620.39 539.276V653.62C1558.88 727.339 1552.76 799.517 1552.76 799.517C1549.07 839.961 1455.99 938.065 1249.94 938.065C1043.89 938.065 977.494 835.611 977.494 835.611H835.611C835.611 835.611 925.369 1023.19 1249.94 1023.19C1574.51 1023.19 1691.26 873.354 1691.26 873.354C1691.26 873.354 1678.46 755.857 1758.15 716.8V536.73C1758.15 536.73 1637.93 463.065 1637.93 404.598V175.004H2944.91V487.46C2944.91 487.46 2849.28 483.572 2840.39 562.855C2840.39 562.855 2896.42 593.023 2871.46 674.036C2858.17 717.18 2813.24 734.253 2782.57 734.253H1807.22C1786.45 734.253 1750.03 772.766 1750.03 799.726H2782.57C2854.59 799.726 2869.18 854.849 2869.18 854.849H2979.5C2979.5 784.094 3059.6 796.355 3062.87 679.111C3065.59 581.242 3063.91 290.109 3063.12 179.417C3063.01 171.493 3064.66 163.643 3067.94 156.426C3071.21 149.21 3076.04 142.806 3082.08 137.669ZM3251.66 207.156H3532.02C3589.45 207.156 3592.88 268.306 3592.88 268.306H3656.31C3656.31 203.676 3673.89 139.028 3762.79 139.028C3791.85 139.028 3800.05 82.9619 3800.05 27.829C3800.05 27.829 3780.92 65.5358 3748.09 65.5358H3583.87C3583.87 65.5358 3560.86 137.46 3489.1 137.46H3170.19C3170.19 137.46 3170.19 137.533 3170.28 137.669C3172.06 141.819 3200.96 207.156 3251.66 207.156ZM3907.66 468.811H3907.51C3892.11 431.031 3837.07 396.451 3793.05 388.83C3793.05 388.83 3785.03 413.65 3748.95 413.65C3738.16 413.459 3727.46 411.72 3717.17 408.485C3652.6 389.383 3657.46 296.579 3657.46 296.579H3594.93C3594.93 296.579 3586.97 406.881 3518.63 406.881H3386.52C3346.13 407.081 3307.41 423.046 3278.61 451.375C3272.9 456.728 3267.71 462.612 3263.12 468.946C3267.99 475.65 3273.51 481.854 3279.61 487.469C3308.29 515.253 3346.61 530.868 3386.54 531.048H3518.64C3586.99 531.048 3594.97 641.323 3594.97 641.323H3657.5C3657.5 641.323 3652.64 548.528 3717.22 529.417C3727.51 526.183 3738.21 524.444 3748.99 524.252C3785.08 524.252 3793.09 549.072 3793.09 549.072C3837.12 541.451 3892.17 506.871 3907.56 469.091H3907.68L3907.62 468.956L3907.66 468.811Z" fill="#4CA30D"/>
</svg>
